<svg width="129" height="123" viewBox="0 0 129 123" fill="none" xmlns="http://www.w3.org/2000/svg">
<path d="M23.8227 66.3976C1.39532 79.3458 1.39798 100.337 23.8227 113.288C46.2475 126.239 82.6088 126.236 105.036 113.288C127.464 100.34 127.461 79.3484 105.036 66.3976C82.6115 53.4469 46.2502 53.4495 23.8227 66.3976Z" fill="#FAFAFA"/>
<path d="M9.10547 23.9912L9.63831 24.3082L20.5883 17.9594L20.0528 17.6396L9.10547 23.9912Z" fill="#FAFAFA"/>
<path d="M20.0527 17.6397L9.63826 23.6795L9.61694 12.7615L20.0314 6.72437L20.0527 17.6397Z" fill="white"/>
<path d="M21.5713 4.66235L8.60718 12.1808L8.63382 26.0561L21.5979 18.5376L21.5713 4.66235ZM20.5882 17.9595L9.63823 24.3083L9.61692 12.7616L20.5642 6.41275L20.5882 17.9595Z" fill="#F0F0F0"/>
<path d="M20.5883 17.9594L20.0528 17.6397L20.0315 6.72441L20.5643 6.41003L20.5883 17.9594Z" fill="#E0E0E0"/>
<path d="M21.5713 4.66498L21.0278 4.35327L8.06372 11.8717L8.60722 12.1808L21.5713 4.66498Z" fill="#FAFAFA"/>
<path d="M8.06372 11.8717L8.60722 12.1808L8.63386 26.056L8.09036 25.747L8.06372 11.8717Z" fill="#E0E0E0"/>
<path d="M19.645 17.3146L10.0432 22.8855L10.0378 20.1094L12.4303 14.5545L13.9303 15.9399L13.3974 18.2658L16.7011 11.1603L19.6397 14.5412L19.645 17.3146Z" fill="#F0F0F0"/>
<path d="M13.8317 11.8717C13.6254 12.0076 13.4538 12.1899 13.3307 12.4042C13.2076 12.6184 13.1365 12.8585 13.123 13.1052C13.123 13.5581 13.4428 13.742 13.8344 13.5128C14.0428 13.3779 14.2159 13.195 14.3392 12.9795C14.4625 12.7639 14.5324 12.522 14.5431 12.274C14.5431 11.8291 14.2234 11.6452 13.8317 11.8717Z" fill="#F0F0F0"/>
<path d="M9.10547 42.9552L9.63831 43.2722L20.5883 36.9234L20.0528 36.6063L9.10547 42.9552Z" fill="#FAFAFA"/>
<path d="M20.0527 36.6062L9.63826 42.646L9.61694 31.7254L20.0314 25.6909L20.0527 36.6062Z" fill="white"/>
<path d="M21.5713 23.6289L8.60718 31.1473L8.63382 45.0226L21.5979 37.5042L21.5713 23.6289ZM20.5882 36.9234L9.63823 43.2749L9.61692 31.7228L20.5642 25.374L20.5882 36.9234Z" fill="#F0F0F0"/>
<path d="M20.5883 36.9233L20.0528 36.6063L20.0315 25.691L20.5643 25.3766L20.5883 36.9233Z" fill="#E0E0E0"/>
<path d="M21.5713 23.6289L21.0278 23.3198L8.06372 30.8383L8.60722 31.1473L21.5713 23.6289Z" fill="#FAFAFA"/>
<path d="M8.06372 30.8383L8.60722 31.1473L8.63386 45.0199L8.09036 44.7109L8.06372 30.8383Z" fill="#E0E0E0"/>
<path d="M19.645 36.2813L10.0432 41.8495L10.0378 39.0734L12.4303 33.5185L13.9303 34.9039L13.3974 37.2324L16.7011 30.127L19.6397 33.5052L19.645 36.2813Z" fill="#F0F0F0"/>
<path d="M13.8317 30.8383C13.6253 30.9734 13.4536 31.1553 13.3304 31.3691C13.2073 31.583 13.1363 31.8228 13.123 32.0692C13.123 32.5221 13.4428 32.7059 13.8344 32.4794C14.0415 32.3444 14.2137 32.1622 14.3368 31.9478C14.46 31.7334 14.5307 31.4929 14.5431 31.2459C14.5431 30.793 14.2234 30.6092 13.8317 30.8383Z" fill="#F0F0F0"/>
<path d="M124.437 62.9875L123.752 63.3951L101.136 50.3351L101.82 49.9248L124.437 62.9875Z" fill="#FAFAFA"/>
<path d="M101.82 49.9247L123.752 62.5904V16.7871L101.82 4.12939V49.9247Z" fill="white"/>
<path d="M99.8408 51.0811L125.044 65.633V16.0412L99.8408 1.48657V51.0811ZM101.136 3.72718L123.752 16.7819V63.3951L101.136 50.3404V3.72718Z" fill="#F5F5F5"/>
<path d="M101.136 50.3351L101.82 49.9248V4.12947L101.136 3.72717V50.3351Z" fill="#E0E0E0"/>
<path d="M123.752 46.5624V47.367L101.136 34.3044L101.82 33.8967L123.752 46.5624Z" fill="#FAFAFA"/>
<path d="M123.752 30.5239V31.3285L101.136 18.2684L101.82 17.8582L123.752 30.5239Z" fill="#FAFAFA"/>
<path d="M99.8408 1.48923L100.536 1.0896L125.74 15.6416L125.044 16.0412L99.8408 1.48923Z" fill="#FAFAFA"/>
<path d="M125.74 15.6415L125.044 16.0411V65.6329L125.74 65.236V15.6415Z" fill="#E0E0E0"/>
<path d="M113.785 11.0324L113.09 10.6328V57.2407L113.785 56.8437V11.0324Z" fill="#E0E0E0"/>
<path d="M111.798 9.88953L113.09 10.6328V57.2407L111.798 56.4921V9.88953Z" fill="#F5F5F5"/>
<path d="M99.8408 17.5225V19.0118L125.044 33.5664V32.0744L99.8408 17.5225Z" fill="#F5F5F5"/>
<path d="M99.8408 33.5558V35.0451L125.044 49.5997V48.1078L99.8408 33.5558Z" fill="#F5F5F5"/>
<path d="M113.09 25.1741L113.785 24.7719L123.752 30.5239V31.3285L113.09 25.1741Z" fill="#FAFAFA"/>
<path d="M113.09 41.2021L113.785 40.7998L123.752 46.5545V47.3591L113.09 41.2021Z" fill="#FAFAFA"/>
<path d="M8.85498 79.8094L24.7657 88.9983L41.5716 79.3085L25.6183 70.1436L8.85498 79.8094Z" fill="#E0E0E0"/>
<path d="M0.76123 90.8471L12.8142 97.8087L25.5465 90.4662L13.4616 83.5232L0.76123 90.8471Z" fill="#E0E0E0"/>
<path d="M42.4695 111.564C53.8567 111.564 63.0879 106.235 63.0879 99.6605C63.0879 93.0862 53.8567 87.7567 42.4695 87.7567C31.0823 87.7567 21.8511 93.0862 21.8511 99.6605C21.8511 106.235 31.0823 111.564 42.4695 111.564Z" fill="#E0E0E0"/>
<path d="M79.7285 114.95C88.4864 114.95 95.586 110.852 95.586 105.796C95.586 100.74 88.4864 96.6418 79.7285 96.6418C70.9707 96.6418 63.8711 100.74 63.8711 105.796C63.8711 110.852 70.9707 114.95 79.7285 114.95Z" fill="#E0E0E0"/>
<path d="M118.467 90.9671L103.44 99.6444L87.5642 90.4928L102.633 81.8368L118.467 90.9671Z" fill="#E0E0E0"/>
<path d="M128.239 99.9881L116.855 106.563L104.831 99.6284L116.245 93.0718L128.239 99.9881Z" fill="#E0E0E0"/>
<path d="M90.239 76.1487L102.641 68.9873L115.8 76.6043L103.4 83.7631L90.239 76.1487Z" fill="#F5F5F5"/>
<path d="M103.4 98.2537L90.239 90.6367V76.1487L103.4 83.763V98.2537Z" fill="#EBEBEB"/>
<path d="M103.4 98.2537L115.799 91.0923V76.6042L103.4 83.763V98.2537Z" fill="#E0E0E0"/>
<path d="M110.628 79.5882L97.4591 71.9766L95.3943 73.1728L108.566 80.7818L110.628 79.5882Z" fill="#FAFAFA"/>
<path d="M110.628 79.5883V81.9754L110.343 81.8075L109.957 82.3644L109.717 82.1592L109.296 82.7454L109.027 82.5296L108.566 83.169V80.7818L110.628 79.5883Z" fill="#E6E6E6"/>
<path d="M92.2131 67.751L102.7 61.6979L113.825 68.1373L103.342 74.1931L92.2131 67.751Z" fill="#F5F5F5"/>
<path d="M103.342 82.2631L92.2131 75.8237V67.7511L103.342 74.1932V82.2631Z" fill="#EBEBEB"/>
<path d="M103.342 82.263L113.825 76.2099V68.1373L103.342 74.1931V82.263Z" fill="#E0E0E0"/>
<path d="M109.453 70.6604L98.3168 64.2263L96.5718 65.2361L107.711 71.6702L109.453 70.6604Z" fill="#FAFAFA"/>
<path d="M109.453 70.6604V72.6799L109.211 72.536L108.886 73.0076L108.683 72.8344L108.326 73.3326L108.097 73.1488L107.711 73.687V71.6701L109.453 70.6604Z" fill="#E6E6E6"/>
<path d="M107.559 86.3126L116.38 81.2213L125.74 86.6377L116.918 91.7317L107.559 86.3126Z" fill="#F5F5F5"/>
<path d="M116.918 105.183L107.559 99.7669V86.3126L116.918 91.7316V105.183Z" fill="#EBEBEB"/>
<path d="M116.919 105.183L125.74 100.092V86.6377L116.919 91.7317V105.183Z" fill="#E0E0E0"/>
<path d="M122.063 88.7611L112.693 83.3474L111.225 84.1973L120.595 89.6083L122.063 88.7611Z" fill="#FAFAFA"/>
<path d="M122.063 88.7611V90.4582L121.858 90.3383L121.584 90.7353L121.413 90.5888L121.115 91.007L120.92 90.8525L120.595 91.3054V89.6083L122.063 88.7611Z" fill="#E6E6E6"/>
<path d="M38.7397 64.1196L25.6104 56.5399L11.6765 64.6045L24.8058 72.1842L38.7397 64.1196Z" fill="#F5F5F5"/>
<path d="M24.8083 87.5248L38.7396 79.4602V64.1196L24.8083 72.1842V87.5248Z" fill="#EBEBEB"/>
<path d="M24.8085 87.5249L11.6765 79.9452V64.6046L24.8058 72.1843L24.8085 87.5249Z" fill="#E0E0E0"/>
<path d="M17.1514 67.7617L31.0959 59.7051L33.2832 60.9706L19.336 69.0245L17.1514 67.7617Z" fill="#FAFAFA"/>
<path d="M17.1514 67.7617V70.2901L17.4551 70.1116L17.8627 70.703L18.1158 70.4846L18.5634 71.1053L18.8511 70.8789L19.336 71.5529V69.0246L17.1514 67.7617Z" fill="#E6E6E6"/>
<path d="M36.6508 55.2319L25.549 48.8218L13.7678 55.6395L24.8696 62.0496L36.6508 55.2319Z" fill="#F5F5F5"/>
<path d="M24.8696 70.5964L36.6508 63.776V55.2318L24.8696 62.0495V70.5964Z" fill="#EBEBEB"/>
<path d="M24.8696 70.5965L13.7678 64.1863V55.6395L24.8696 62.0496V70.5965Z" fill="#E0E0E0"/>
<path d="M18.3955 58.3117L30.1874 51.4966L32.0363 52.5676L20.2418 59.38L18.3955 58.3117Z" fill="#FAFAFA"/>
<path d="M18.3955 58.3116V60.4484L18.6513 60.2965L18.9976 60.7974L19.2108 60.6135L19.5891 61.1384L19.8315 60.9466L20.2418 61.5167V59.38L18.3955 58.3116Z" fill="#E6E6E6"/>
<path d="M22.6557 80.9283L13.3176 75.5359L3.40674 81.272L12.7475 86.6643L22.6557 80.9283Z" fill="#F5F5F5"/>
<path d="M12.7476 96.3487L22.6558 90.6127V80.9282L12.7476 86.6643V96.3487Z" fill="#EBEBEB"/>
<path d="M12.7475 96.3488L3.40674 90.9564V81.272L12.7475 86.6644V96.3488Z" fill="#E0E0E0"/>
<path d="M7.30176 83.5179L17.2207 77.7871L18.7739 78.6876L8.855 84.4157L7.30176 83.5179Z" fill="#FAFAFA"/>
<path d="M7.30176 83.5179V85.3163L7.51756 85.1884L7.80796 85.6094L7.98913 85.4548L8.30617 85.8971L8.50865 85.7346L8.855 86.2141V84.4158L7.30176 83.5179Z" fill="#E6E6E6"/>
<path opacity="0.2" d="M95.1465 49.9727C97.7174 49.9274 100.288 49.8954 102.857 49.8368L106.715 49.7462C107.999 49.7062 109.283 49.6769 110.57 49.629V49.573C109.283 49.5251 107.999 49.4958 106.715 49.4558L102.857 49.3652C100.288 49.3066 97.7174 49.2746 95.1465 49.2293C92.5755 49.1841 90.0072 49.1521 87.4362 49.1388C86.6369 49.1388 85.819 49.1388 85.0118 49.1388L87.4096 48.7178C89.9406 48.2569 92.4716 47.772 94.9893 47.2898C97.507 46.8076 100.038 46.32 102.558 45.8165L106.339 45.0572C107.599 44.7908 108.859 44.543 110.117 44.2579V44.202C108.843 44.3778 107.572 44.5723 106.299 44.7561L102.486 45.3369C99.9447 45.7259 97.4084 46.1362 94.8694 46.5411C92.3304 46.9461 89.794 47.3591 87.2604 47.7907C86.4611 47.9319 85.6618 48.0571 84.8626 48.2169L87.1538 47.383C89.5649 46.4932 91.9654 45.5767 94.3685 44.6629C96.7716 43.749 99.1641 42.8326 101.562 41.8974L105.135 40.5147C106.331 40.0378 107.532 39.5715 108.718 39.0867L108.699 39.0334C107.474 39.4277 106.256 39.8326 105.036 40.2403L101.381 41.4738C98.9456 42.297 96.5212 43.1469 94.0888 43.9835C91.6563 44.8201 89.2319 45.6673 86.8128 46.5358L84.5109 47.3777C85.2213 46.971 85.9318 46.5625 86.6423 46.1522C88.8616 44.8574 91.0675 43.5386 93.2762 42.2198C95.4848 40.901 97.6881 39.5822 99.8861 38.2474L103.179 36.2413C104.271 35.5646 105.369 34.8958 106.459 34.2111L106.429 34.1605C105.294 34.7626 104.165 35.3781 103.033 35.9882L99.649 37.8371C97.3924 39.0707 95.1518 40.3282 92.9032 41.567C90.6546 42.8059 88.4113 44.0688 86.1814 45.3449C85.4709 45.7534 84.7604 46.1619 84.05 46.5705C84.6787 46.0483 85.3057 45.5243 85.9309 44.9986C87.8918 43.3361 89.834 41.6523 91.7789 39.9738C93.7238 38.2954 95.666 36.6089 97.5975 34.9118L100.494 32.3648C101.453 31.5096 102.417 30.6597 103.371 29.7965L103.334 29.7539C102.319 30.5532 101.314 31.3524 100.304 32.1517L97.2938 34.5495C95.2877 36.148 93.2975 37.7839 91.2993 39.401C89.3012 41.0182 87.303 42.6461 85.3341 44.2899C84.7089 44.8227 84.0873 45.3485 83.4692 45.8671C84.002 45.2437 84.5278 44.622 85.0464 44.0021C86.6902 42.0253 88.3101 40.0298 89.9352 38.037C91.5604 36.0441 93.1803 34.0406 94.7868 32.0425L97.1846 29.0319C97.9839 28.0221 98.7831 27.0177 99.5824 26.0027L99.5371 25.9654C98.6739 26.9192 97.824 27.8836 96.9688 28.8427L94.4138 31.7227C92.7167 33.6543 91.0409 35.6019 89.3518 37.5414C87.6627 39.481 85.9895 41.4285 84.3271 43.3894C83.7942 44.0146 83.2702 44.6416 82.7552 45.2703C83.1655 44.5599 83.5749 43.8494 83.9834 43.1389C85.2569 40.909 86.5064 38.663 87.7586 36.4171C89.0108 34.1712 90.2629 31.9279 91.4885 29.6713L93.3375 26.2877C93.9476 25.1554 94.563 24.0285 95.1651 22.8909L95.1145 22.8615C94.4298 23.9512 93.7611 25.0489 93.0843 26.1412L91.0782 29.4342C89.7461 31.6322 88.43 33.8408 87.1058 36.0441C85.7817 38.2474 84.4683 40.4587 83.1734 42.678C82.7632 43.3885 82.3546 44.0989 81.9479 44.8094C82.2303 44.0421 82.5109 43.2748 82.7898 42.5075C83.6583 40.0884 84.4976 37.6586 85.3421 35.2315C86.1867 32.8044 87.0286 30.3747 87.8518 27.9396L89.0854 24.2842C89.4877 23.064 89.8979 21.8465 90.2949 20.6209L90.239 20.6023C89.7567 21.7932 89.2878 23.0001 88.8109 24.1857L87.4069 27.777C86.4717 30.1748 85.5632 32.5726 84.6414 34.9704C83.7196 37.3682 82.8111 39.766 81.9213 42.1851C81.6415 42.9498 81.3644 43.7117 81.09 44.4764C81.2339 43.6771 81.3724 42.8778 81.5136 42.0786C81.9452 39.5449 82.3529 37.0166 82.7632 34.4696C83.1734 31.9226 83.5784 29.3942 83.9674 26.8526L84.5482 23.0401C84.732 21.7666 84.9265 20.4957 85.1023 19.2222H85.0464C84.78 20.4797 84.5135 21.7399 84.2471 23.0001L83.4878 26.7806C82.9843 29.301 82.5074 31.8267 82.0145 34.3497C81.5216 36.8727 81.0474 39.4117 80.5891 41.9294C80.4479 42.7286 80.3041 43.5279 80.1682 44.3272C80.1682 43.5279 80.1682 42.7073 80.1682 41.9001C80.1682 39.3291 80.1149 36.7581 80.0776 34.1898C80.0403 31.6215 80.0004 29.0479 79.9417 26.4796L79.8831 22.6138C79.8432 21.327 79.8139 20.0428 79.7659 18.756H79.7073C79.6593 20.0428 79.63 21.327 79.5901 22.6138L79.4995 26.4689C79.4409 29.0372 79.4089 31.6082 79.3636 34.1792C79.3183 36.7501 79.2863 39.3184 79.273 41.8894C79.273 42.6887 79.273 43.5066 79.273 44.3165C79.1371 43.5173 78.9933 42.718 78.8547 41.9187C78.3938 39.3877 77.9089 36.8567 77.4267 34.339C76.9445 31.8213 76.4569 29.2903 75.9534 26.77L75.1941 22.9894C74.9277 21.7293 74.6799 20.4691 74.4082 19.2116H74.3522C74.528 20.4851 74.7225 21.7559 74.9064 23.0294L75.4872 26.8419C75.8761 29.3836 76.2864 31.9199 76.6914 34.4589C77.0964 36.9979 77.5093 39.5209 77.9409 42.0679C78.0821 42.8672 78.2207 43.6665 78.3645 44.4657C78.0981 43.7011 77.813 42.9391 77.5333 42.1745C76.6434 39.7634 75.7269 37.3629 74.8131 34.9598C73.8993 32.5566 72.9828 30.1642 72.0477 27.7664L70.6436 24.175C70.1667 22.9788 69.7005 21.7772 69.2156 20.5916L69.1623 20.6103C69.5566 21.8358 69.9616 23.0534 70.3692 24.2736L71.6027 27.9289C72.426 30.364 73.2759 32.7884 74.1124 35.2209C74.949 37.6533 75.7962 40.0777 76.6648 42.4969C76.9454 43.2642 77.226 44.0315 77.5066 44.7987C77.0981 44.0883 76.6896 43.3778 76.2811 42.6674C74.9863 40.4481 73.6648 38.2421 72.3487 36.0335C71.0326 33.8248 69.7111 31.6215 68.3764 29.4235L66.3702 26.1305C65.6935 25.0382 65.0248 23.9406 64.3401 22.8509L64.2894 22.8802C64.8916 24.0178 65.507 25.1448 66.1171 26.2771L67.9661 29.6606C69.1996 31.9172 70.4571 34.1578 71.696 36.4064C72.9348 38.6551 74.1977 40.8983 75.4738 43.1283C75.8824 43.8387 76.2909 44.5492 76.6994 45.2597C76.1772 44.6309 75.6532 44.0039 75.1275 43.3787C73.465 41.4178 71.7812 39.4756 70.1028 37.5308C68.4243 35.5859 66.7379 33.6437 65.0408 31.7121L62.4938 28.8161C61.6385 27.857 60.7887 26.8925 59.9254 25.9387L59.8828 25.976C60.6821 26.9911 61.4814 27.9955 62.2806 29.0052L64.6784 32.0158C66.277 34.022 67.9128 36.0121 69.53 38.0103C71.1472 40.0085 72.775 42.0066 74.4188 43.9755C74.9517 44.6007 75.4774 45.2224 75.996 45.8405C75.3726 45.3076 74.751 44.7819 74.1311 44.2632C72.1542 42.6194 70.1587 40.9996 68.1659 39.3744C66.173 37.7492 64.1696 36.1294 62.1714 34.5228L59.1608 32.125C58.1511 31.3258 57.1467 30.5265 56.1316 29.7272L56.0943 29.7699C57.0481 30.6331 58.0125 31.483 58.9717 32.3382L61.8543 34.9198C63.7859 36.6169 65.7335 38.2927 67.673 39.9818C69.6126 41.6709 71.5601 43.3441 73.521 45.0066C74.1479 45.5394 74.7749 46.0634 75.4019 46.5784C74.6915 46.1682 73.981 45.7596 73.2705 45.3529C71.0406 44.0767 68.7946 42.8272 66.5487 41.575C64.3028 40.3229 62.0595 39.0707 59.8029 37.8451L56.438 35.9855C55.3057 35.3754 54.1761 34.76 53.0411 34.1578L53.0118 34.2085C54.1015 34.8932 55.1991 35.5619 56.2914 36.2386L59.5844 38.2448C61.7824 39.5769 63.991 40.893 66.1944 42.2171C68.3977 43.5412 70.609 44.8547 72.8283 46.1495C73.5387 46.5598 74.2492 46.9683 74.9596 47.375L72.6578 46.5332C70.2387 45.6646 67.8089 44.8254 65.3818 43.9808C62.9547 43.1363 60.5249 42.2944 58.0898 41.4711L54.4345 40.2376C53.2143 39.8353 51.9967 39.425 50.7712 39.0307L50.7525 39.084C51.9434 39.5689 53.1503 40.0351 54.3359 40.512L57.9273 41.9161C60.3251 42.8512 62.7229 43.7597 65.1207 44.6815C67.5185 45.6033 69.9163 46.5118 72.3354 47.4017L74.6266 48.2356C73.8274 48.0891 73.0281 47.9505 72.2288 47.8093C69.6951 47.3777 67.1668 46.9701 64.6198 46.5598C62.0728 46.1495 59.5445 45.7445 57.0028 45.3556L53.1743 44.7774C51.9008 44.5936 50.63 44.3991 49.3565 44.2233V44.2792C50.614 44.5456 51.8742 44.8121 53.1343 45.0785L56.9149 45.8378C59.4352 46.3413 61.9609 46.8182 64.4839 47.3111C67.0069 47.804 69.546 48.2782 72.0636 48.7391L74.4614 49.1601C73.6622 49.1601 72.8443 49.1601 72.037 49.1601C69.466 49.1601 66.8951 49.2134 64.3267 49.2507C61.7584 49.288 59.1848 49.3279 56.6165 49.3865L52.7614 49.4771C51.4745 49.5171 50.1904 49.5464 48.9036 49.5943V49.653C50.1904 49.7009 51.4745 49.7302 52.7614 49.7702L56.6165 49.8608C59.1848 49.9194 61.7558 49.9513 64.3267 49.9966C66.8977 50.0419 69.466 50.0739 72.037 50.0872H74.4614C73.6622 50.2231 72.8629 50.3536 72.0636 50.5082C69.5326 50.9664 67.0016 51.4513 64.4839 51.9335C61.9662 52.4158 59.4352 52.9033 56.9149 53.4068L53.1343 54.1661C51.8742 54.4326 50.614 54.6803 49.3565 54.9521V55.008C50.63 54.8322 51.9008 54.6377 53.1743 54.4539L56.9868 53.8731C59.5285 53.4841 62.0648 53.0738 64.6038 52.6689C67.1428 52.2639 69.6658 51.8536 72.2128 51.4193C73.0121 51.2781 73.8114 51.1396 74.6106 50.9957C73.846 51.2621 73.084 51.5472 72.3194 51.827C69.9083 52.7168 67.5078 53.6333 65.1047 54.5471C62.7016 55.461 60.3091 56.3775 57.9113 57.3126L54.3066 58.6927C53.1104 59.1696 51.9088 59.6385 50.7232 60.1207L50.7419 60.1766C51.9674 59.7797 53.185 59.3774 54.4052 58.9671L58.0605 57.7335C60.4956 56.9103 62.92 56.0604 65.3525 55.2238C67.7849 54.3873 70.2093 53.5401 72.6285 52.6715L74.9303 51.8323C74.2199 52.2373 73.5094 52.6449 72.799 53.0552C70.5797 54.35 68.3737 55.6714 66.1651 56.9876C63.9564 58.3037 61.7531 59.6251 59.5551 60.9599L56.2621 62.9661C55.1698 63.6428 54.0722 64.3115 52.9825 64.9962L53.0118 65.0468C54.1468 64.4447 55.2764 63.8293 56.4087 63.2218L59.7922 61.3569C62.0488 60.1234 64.2894 58.8658 66.538 57.627C68.7866 56.3881 71.0299 55.1253 73.2599 53.8518L75.3913 52.6236C74.7625 53.1458 74.1355 53.6697 73.5103 54.1955C71.5494 55.8579 69.6072 57.5417 67.6623 59.2202C65.7175 60.8986 63.7752 62.5851 61.8437 64.2822L58.9477 66.8292C57.9886 67.6844 57.0241 68.5343 56.0703 69.3975L56.1076 69.4428C57.1227 68.6435 58.1271 67.8443 59.1368 67.045L62.1474 64.6472C64.1536 63.0487 66.1437 61.4128 68.1419 59.7956C70.1401 58.1785 72.1382 56.5506 74.1071 54.9068C74.7323 54.374 75.354 53.8482 75.9721 53.3296C75.4392 53.953 74.9197 54.5818 74.3948 55.1945C72.751 57.1741 71.1312 59.1669 69.506 61.1597C67.8808 63.1526 66.261 65.1561 64.6544 67.1542L62.2566 70.1648C61.4574 71.1745 60.6581 72.179 59.8588 73.194L59.9015 73.2313C60.7647 72.2775 61.6146 71.3131 62.4698 70.354L65.0168 67.458C66.7139 65.5264 68.3897 63.5788 70.0788 61.6393C71.7679 59.6997 73.441 57.7522 75.1035 55.7913C75.6364 55.1661 76.1603 54.5391 76.6754 53.9104C76.2651 54.6208 75.8566 55.3313 75.4499 56.0418C74.1737 58.2717 72.9242 60.5177 71.672 62.7636C70.4198 65.0095 69.1676 67.2528 67.9421 69.5094L66.0931 72.893C65.483 74.0253 64.8676 75.1549 64.2655 76.2898L64.3161 76.3192C65.0008 75.2295 65.6695 74.1318 66.3462 73.0395L68.3524 69.7465C69.6845 67.5485 71.0006 65.3399 72.3247 63.1366C73.6489 60.9333 74.9623 58.722 76.2571 56.5027C76.6674 55.7922 77.0759 55.0818 77.4827 54.3713C77.2003 55.1386 76.9196 55.9059 76.6408 56.6732C75.7722 59.0923 74.933 61.5221 74.0884 63.9492C73.2439 66.3763 72.402 68.806 71.5788 71.2411L70.3452 74.8965C69.9429 76.1167 69.5326 77.3342 69.1383 78.5598L69.1916 78.5784C69.6765 77.3875 70.1427 76.1806 70.6196 74.9977L72.037 71.4196C72.9721 69.0218 73.8806 66.6241 74.8025 64.2262C75.7243 61.8284 76.6328 59.4306 77.5226 57.0115C77.8024 56.2469 78.0795 55.4849 78.3539 54.7203C78.21 55.5196 78.0715 56.3188 77.9303 57.1181C77.4987 59.6518 77.091 62.1801 76.6807 64.7271C76.2705 67.2741 75.8655 69.8025 75.4765 72.3441L74.8957 76.1566C74.7119 77.4301 74.5174 78.701 74.3416 79.9745H74.3975C74.6639 78.7169 74.9303 77.4568 75.1834 76.1966L75.9427 72.4161C76.4463 69.8957 76.9232 67.37 77.4161 64.847C77.9089 62.324 78.3832 59.785 78.8441 57.2673C78.9826 56.468 79.1265 55.6688 79.2624 54.8695C79.2624 55.6688 79.2624 56.4867 79.2624 57.2939C79.2757 59.8649 79.3157 62.4359 79.353 65.0042C79.3903 67.5725 79.4302 70.1461 79.4888 72.7171L79.5794 76.5723C79.6194 77.8564 79.6487 79.1406 79.6966 80.4274H79.7552C79.8032 79.1406 79.8325 77.8564 79.8725 76.5723L79.9631 72.7171C80.0217 70.1461 80.0536 67.5752 80.0989 65.0042C80.1442 62.4332 80.1762 59.8649 80.1895 57.2939C80.1895 56.4947 80.1895 55.6768 80.1895 54.8695C80.3254 55.6688 80.4693 56.468 80.6105 57.2673C81.0687 59.7983 81.5536 62.3293 82.0358 64.847C82.518 67.3647 83.0056 69.8957 83.5091 72.4161L84.2684 76.2152C84.5349 77.4754 84.7826 78.7356 85.0677 79.9931H85.1237C84.9478 78.7196 84.7533 77.4488 84.5695 76.1753L83.9887 72.3628C83.5997 69.8211 83.1894 67.2848 82.7845 64.7458C82.3795 62.2068 81.9666 59.6704 81.535 57.1368C81.3937 56.3375 81.2685 55.5382 81.1113 54.739C81.3778 55.5036 81.6628 56.2656 81.9426 57.0302C82.8138 59.4147 83.7356 61.8284 84.6494 64.2262C85.5633 66.6241 86.4797 69.0218 87.4149 71.4196L88.8189 75.0137C89.2958 76.2073 89.7647 77.4115 90.247 78.5944L90.3029 78.5757C89.9059 77.3502 89.5036 76.1327 89.0933 74.9124L87.8598 71.2571C87.0366 68.822 86.1867 66.3976 85.3501 63.9652C84.5135 61.5327 83.6663 59.1083 82.7978 56.6892C82.5189 55.9219 82.2383 55.1546 81.9559 54.3873C82.3644 55.0977 82.7729 55.8082 83.1814 56.5187C84.4762 58.738 85.7977 60.9439 87.1138 63.1526C88.43 65.3612 89.7514 67.5645 91.0862 69.7625L93.0923 73.0555C93.7691 74.1478 94.4378 75.2455 95.1225 76.3351L95.1731 76.3058C94.571 75.1709 93.9556 74.0412 93.3454 72.9089L91.4965 69.5254C90.2629 67.2688 89.0054 65.0282 87.7666 62.7796C86.5277 60.531 85.2649 58.2877 83.9914 56.0577C83.5811 55.3473 83.1717 54.6368 82.7632 53.9264C83.2853 54.5551 83.8093 55.1821 84.335 55.8073C85.9975 57.7682 87.6813 59.7104 89.3598 61.6553C91.0382 63.6002 92.7247 65.5424 94.4218 67.4739L96.9688 70.3699C97.824 71.3291 98.6739 72.2935 99.5371 73.2473L99.5824 73.21C98.7831 72.1949 97.9839 71.1905 97.1846 70.1808L94.7868 67.1702C93.1883 65.1641 91.5524 63.1739 89.9352 61.1757C88.3181 59.1775 86.6902 57.1794 85.0464 55.2105C84.5135 54.5871 83.9967 53.9583 83.4692 53.3456C84.0926 53.8784 84.7143 54.4042 85.3341 54.9228C87.311 56.5666 89.3065 58.1865 91.2993 59.8116C93.2922 61.4368 95.3409 63.0567 97.3471 64.6632L100.304 67.061C101.314 67.8603 102.319 68.6595 103.334 69.4588L103.371 69.4135C102.417 68.5503 101.453 67.7004 100.494 66.8452L97.5975 64.2982C95.666 62.6011 93.7184 60.9253 91.7789 59.2362C89.8393 57.547 87.8918 55.8739 85.9309 54.2114C85.3057 53.6786 84.6787 53.1546 84.05 52.6395L86.1814 53.8678C88.4113 55.1413 90.6572 56.3908 92.9032 57.643C95.1491 58.8951 97.3924 60.1473 99.649 61.3729L103.033 63.2378C104.165 63.8453 105.294 64.4607 106.429 65.0628L106.459 65.0122C105.369 64.3275 104.271 63.6588 103.179 62.9821L99.8861 60.9759C97.6881 59.6438 95.4795 58.3277 93.2762 57.0035C91.0729 55.6794 88.8616 54.366 86.6423 53.0712C85.9318 52.6609 85.2213 52.2532 84.5109 51.8483L86.8128 52.6875C89.2319 53.556 91.6617 54.3953 94.0888 55.2398C96.5159 56.0844 98.9456 56.9263 101.381 57.7495L105.036 58.9831C106.256 59.3854 107.474 59.7957 108.699 60.1926L108.718 60.1367C107.527 59.6544 106.32 59.1855 105.135 58.7086L101.543 57.2993C99.1455 56.3641 96.7477 55.4583 94.3499 54.5338C91.9521 53.6093 89.5543 52.7035 87.1351 51.8136C86.3705 51.5339 85.6085 51.2568 84.8439 50.9824C85.6432 51.1263 86.4424 51.2648 87.2417 51.406C89.7754 51.8403 92.3037 52.2452 94.8507 52.6555C97.3977 53.0658 99.9261 53.4708 102.468 53.8598L106.28 54.4406C107.554 54.6244 108.825 54.8189 110.098 54.9947V54.9388C108.841 54.6724 107.58 54.4059 106.32 54.1528L102.54 53.3935C100.019 52.89 97.4936 52.4131 94.9706 51.9202C92.4476 51.4273 89.9086 50.9531 87.3909 50.4949C86.5916 50.3536 85.7924 50.2098 84.9931 50.0739H87.4175C90.0072 50.0499 92.5781 50.01 95.1465 49.9727Z" fill="#BA68C8"/>
<path d="M85.8536 100.43C82.47 98.4775 76.987 98.4775 73.5981 100.43C71.9064 101.405 71.0618 102.684 71.0645 103.966C71.0645 104.096 71.0645 104.893 71.0645 105.031C71.0911 106.292 71.933 107.544 73.5981 108.495C76.9817 110.448 82.4647 110.448 85.8536 108.495C87.524 107.531 88.3686 106.268 88.3872 105.002C88.3872 104.856 88.3872 104.059 88.3872 103.92C88.3792 102.671 87.5347 101.4 85.8536 100.43Z" fill="#37474F"/>
<path d="M73.6036 107.501C70.22 105.548 70.22 102.383 73.6036 100.43C76.9872 98.4775 82.4701 98.4775 85.859 100.43C89.2479 102.383 89.2399 105.548 85.859 107.501C82.4781 109.454 76.9872 109.454 73.6036 107.501Z" fill="#455A64"/>
<path d="M80.464 104.126V58.8765H78.9854V104.126C78.9806 104.197 78.9983 104.268 79.0361 104.329C79.0738 104.389 79.1297 104.437 79.1959 104.464C79.358 104.547 79.5374 104.59 79.7194 104.59C79.9014 104.59 80.0808 104.547 80.2429 104.464C80.3108 104.438 80.3687 104.392 80.4085 104.331C80.4482 104.27 80.4676 104.198 80.464 104.126Z" fill="#37474F"/>
<path d="M66.2956 53.4495C73.7261 49.1575 85.7737 49.1575 93.2042 53.4495C96.9181 55.5809 98.7751 59.452 98.7724 62.2628V62.8089C98.7724 65.6197 96.9075 68.4331 93.2042 70.5778C85.7737 74.8672 73.7261 74.8672 66.2956 70.5778C62.579 68.4464 60.7247 65.6197 60.7273 62.8089V62.2628C60.7007 59.452 62.5656 55.5942 66.2956 53.4495Z" fill="#BA68C8"/>
<path opacity="0.2" d="M66.2956 53.4495C73.7261 49.1575 85.7737 49.1575 93.2042 53.4495C96.9181 55.5809 98.7751 59.452 98.7724 62.2628V62.8089C98.7724 65.6197 96.9075 68.4331 93.2042 70.5778C85.7737 74.8672 73.7261 74.8672 66.2956 70.5778C62.579 68.4464 60.7247 65.6197 60.7273 62.8089V62.2628C60.7007 59.452 62.5656 55.5942 66.2956 53.4495Z" fill="#1E1E1E"/>
<path d="M66.2662 52.0215C73.6968 47.7321 85.7444 47.7321 93.1749 52.0215C96.8888 54.1662 98.7431 56.9796 98.7431 59.7904V60.7255C98.7431 63.5389 96.8782 67.3861 93.1749 69.5414C85.7444 73.8308 73.6968 73.8308 66.2662 69.5414C62.5497 67.3967 60.7007 63.1606 60.7007 60.3365V59.7904C60.7007 56.9796 62.5497 54.1662 66.2662 52.0215Z" fill="#37474F"/>
<path d="M93.1749 67.5566C100.605 63.2672 100.605 56.3136 93.1749 52.0215C85.7444 47.7295 73.6968 47.7321 66.2662 52.0215C58.8357 56.3109 58.8357 63.2672 66.2662 67.5566C73.6968 71.846 85.7444 71.8486 93.1749 67.5566Z" fill="#455A64"/>
<path d="M79.7286 48.2117L61.5266 58.722L79.7312 69.2297L97.9305 58.722L79.7286 48.2117Z" fill="#37474F"/>
<path d="M64.2229 40.8158L64.2202 58.722L79.7287 67.6685V49.7676L64.2229 40.8158Z" fill="#BA68C8"/>
<path d="M79.7288 49.7676V67.6685L95.2345 58.722V40.8158L79.7288 49.7676Z" fill="#BA68C8"/>
<path opacity="0.25" d="M79.7288 49.7676V67.6685L95.2345 58.722V40.8158L79.7288 49.7676Z" fill="white"/>
<path opacity="0.4" d="M79.7288 49.7676L79.9712 67.2262L88.923 62.364L79.7288 67.6685V49.7676Z" fill="white"/>
<path d="M79.7287 31.864L64.2229 40.8158L79.7287 49.7676L95.2344 40.8158L79.7287 31.864Z" fill="#BA68C8"/>
<path opacity="0.4" d="M79.7287 31.864L64.2229 40.8158L79.7287 49.7676L95.2344 40.8158L79.7287 31.864Z" fill="white"/>
<path opacity="0.1" d="M64.2229 40.8158L79.6781 49.3093L95.2344 40.8158L79.7287 49.7676L64.2229 40.8158Z" fill="white"/>
<path d="M70.8674 36.9793L86.3732 45.9311L88.5898 44.6522L73.0841 35.7004L70.8674 36.9793Z" fill="#BA68C8"/>
<path d="M88.5899 44.6522V47.4683L88.3208 47.3138L88.0438 47.796L87.764 47.6308L87.4869 48.1157L87.2099 47.9532L86.9301 48.4328L86.653 48.2756L86.3733 48.7551V45.9337L88.5899 44.6522Z" fill="#BA68C8"/>
<path opacity="0.25" d="M88.5899 44.6522V47.4683L88.3208 47.3138L88.0438 47.796L87.764 47.6308L87.4869 48.1157L87.2099 47.9532L86.9301 48.4328L86.653 48.2756L86.3733 48.7551V45.9337L88.5899 44.6522Z" fill="#1E1E1E"/>
<path d="M84.9666 52.2692C85.1211 52.0028 85.2836 51.7364 85.4594 51.4939C85.6353 51.2391 85.8266 50.9953 86.0322 50.7639C86.2391 50.5305 86.4626 50.3123 86.701 50.1112C86.9418 49.9104 87.2004 49.7321 87.4736 49.5784C87.7904 49.3819 88.1424 49.2489 88.51 49.1867C88.7841 49.1389 89.0663 49.1869 89.3092 49.3226C89.5449 49.4706 89.7248 49.6927 89.8208 49.954C89.952 50.3083 90.0136 50.6847 90.0019 51.0623C90.0052 51.4642 89.9595 51.865 89.8661 52.2559C89.7793 52.6039 89.6644 52.9443 89.5224 53.2736C89.3905 53.5715 89.2383 53.8599 89.0668 54.1368L88.5979 54.8828C88.4487 55.1146 88.3315 55.3357 88.2116 55.5409C88.1123 55.7264 88.0447 55.9272 88.0118 56.135L87.8519 57.4405L86.6503 58.1332L86.5305 56.8304C86.5003 56.5773 86.5266 56.3207 86.6077 56.0791C86.6909 55.8232 86.7989 55.576 86.9301 55.3411C87.066 55.096 87.2178 54.8482 87.3857 54.5951C87.5535 54.342 87.7107 54.0862 87.8572 53.8225C88.0024 53.5615 88.1254 53.2888 88.2249 53.0072C88.3242 52.7257 88.3746 52.4292 88.3741 52.1307C88.3741 51.7577 88.2782 51.5152 88.0864 51.406C87.8945 51.2968 87.6361 51.3341 87.3191 51.5179C87.1044 51.6391 86.9065 51.7877 86.7303 51.9602C86.5844 52.1054 86.4474 52.2593 86.32 52.4211C86.2054 52.5676 86.1095 52.6875 86.0296 52.8154C85.9703 52.9079 85.8922 52.9868 85.8005 53.0472C85.6379 53.1404 85.5181 53.1164 85.4381 52.9779L84.9666 52.2692ZM86.1575 60.6722C86.1589 60.4779 86.1849 60.2845 86.2347 60.0967C86.2873 59.9025 86.3614 59.7148 86.4559 59.5372C86.5464 59.3662 86.6564 59.2062 86.7836 59.0603C86.9 58.9235 87.0387 58.8073 87.1938 58.7166C87.316 58.6408 87.4553 58.5969 87.5988 58.5887C87.717 58.5828 87.8336 58.6176 87.9292 58.6873C88.0309 58.7648 88.1078 58.8704 88.1503 58.991C88.2068 59.1463 88.2339 59.3107 88.2302 59.4759C88.2297 59.6722 88.2028 59.8676 88.1503 60.0567C88.0973 60.249 88.0231 60.4349 87.9292 60.6109C87.8393 60.7821 87.7283 60.9414 87.5988 61.0851C87.4829 61.2183 87.3462 61.3316 87.1938 61.4208C87.0704 61.4992 86.9294 61.5459 86.7836 61.5567C86.6664 61.5643 86.5504 61.5303 86.4559 61.4608C86.3547 61.3838 86.2779 61.2793 86.2347 61.1597C86.1798 61.0032 86.1536 60.838 86.1575 60.6722Z" fill="white"/>
<path d="M69.4607 49.3679C69.6159 49.2788 69.7814 49.209 69.9536 49.1601C70.1398 49.1079 70.333 49.0845 70.5264 49.0909C70.7529 49.0998 70.977 49.1402 71.1924 49.2108C71.4622 49.2967 71.7214 49.4129 71.9651 49.5571C72.3457 49.7745 72.6944 50.0435 73.0014 50.3564C73.3108 50.6723 73.5794 51.0259 73.8007 51.4087C74.02 51.7942 74.1917 52.2048 74.3122 52.6316C74.4321 53.0601 74.493 53.5028 74.4934 53.9477C74.5052 54.2985 74.4584 54.6488 74.3549 54.9841C74.2832 55.212 74.1663 55.4232 74.0112 55.6049C73.8857 55.7482 73.7313 55.8635 73.5583 55.9432C73.3931 56.0178 73.2359 56.0871 73.0867 56.1457C72.95 56.2007 72.821 56.2732 72.703 56.3615C72.6473 56.4056 72.6009 56.4603 72.5665 56.5225C72.5322 56.5847 72.5107 56.6532 72.5032 56.7239L72.3434 57.8455L71.1418 57.1501L71.0219 55.7088C70.9836 55.4851 71.0095 55.255 71.0965 55.0454C71.1716 54.8978 71.2836 54.7721 71.4216 54.6804C71.5641 54.5889 71.717 54.5146 71.8771 54.4593C72.0415 54.4017 72.1988 54.3258 72.346 54.2328C72.4971 54.1326 72.6237 53.9997 72.7164 53.8438C72.8272 53.6247 72.8787 53.3804 72.8656 53.1352C72.8684 52.76 72.768 52.3913 72.5752 52.0695C72.3938 51.7483 72.1298 51.4816 71.8105 51.2968C71.6304 51.182 71.4309 51.1008 71.2217 51.0571C71.0857 51.0375 70.9475 51.0375 70.8115 51.0571C70.7127 51.0699 70.6149 51.0886 70.5184 51.113C70.4801 51.1238 70.4399 51.1266 70.4005 51.1211C70.361 51.1156 70.3232 51.1019 70.2893 51.081C70.1139 50.9673 69.9853 50.7942 69.9269 50.5935L69.4607 49.3679ZM70.6489 59.143C70.6453 58.9778 70.6724 58.8134 70.7289 58.6581C70.7714 58.5374 70.8482 58.4319 70.95 58.3544C71.0438 58.2851 71.1586 58.2502 71.275 58.2558C71.4207 58.2616 71.5622 58.3057 71.6853 58.3837C71.8388 58.4756 71.9764 58.5916 72.0929 58.7274C72.2212 58.8729 72.3321 59.033 72.4233 59.2043C72.518 59.3815 72.5913 59.5693 72.6418 59.7637C72.6937 59.9512 72.7206 60.1447 72.7217 60.3392C72.7261 60.5053 72.699 60.6707 72.6418 60.8268C72.6004 60.9473 72.5244 61.053 72.4233 61.1305C72.3274 61.1988 72.2103 61.2309 72.0929 61.2211C71.9485 61.2111 71.8087 61.1663 71.6853 61.0905C71.5326 60.9987 71.3943 60.8846 71.275 60.7522C71.1481 60.6077 71.0389 60.4485 70.95 60.2779C70.8561 60.1019 70.7819 59.9161 70.7289 59.7238C70.6764 59.5346 70.6495 59.3393 70.6489 59.143Z" fill="white"/>
<path d="M82.2357 24.0392C82.156 23.8118 82.0127 23.612 81.8228 23.4637L81.7402 23.4104C81.583 23.3198 79.4862 22.1076 79.4516 22.0783C79.289 21.9883 79.1044 21.9458 78.9188 21.9558C78.6468 21.969 78.3826 22.0516 78.1515 22.1955C77.8614 22.3682 77.6013 22.5868 77.3815 22.8429C77.1411 23.117 76.9336 23.4184 76.7634 23.7408C76.585 24.0788 76.4464 24.4365 76.3505 24.8065C76.2527 25.1606 76.2025 25.5261 76.2013 25.8935C76.1921 26.2066 76.2427 26.5185 76.3505 26.8126C76.4307 27.0376 76.574 27.2346 76.7634 27.3801L76.8487 27.4361L79.1159 28.7442C79.2774 28.8376 79.4625 28.882 79.6488 28.8721C79.9242 28.8476 80.1894 28.7562 80.4214 28.6057C80.7089 28.4359 80.9678 28.222 81.1887 27.9716C81.4322 27.6997 81.6416 27.3991 81.8121 27.0764C81.9875 26.7444 82.126 26.3942 82.2251 26.032C82.3226 25.6751 82.3728 25.307 82.3743 24.937C82.3824 24.6319 82.3354 24.3277 82.2357 24.0392Z" fill="#455A64"/>
<path d="M76.3556 26.8126C76.4359 27.0375 76.5792 27.2346 76.7686 27.3801L76.8539 27.436L79.1211 28.7442C79.2826 28.8375 79.4677 28.882 79.654 28.872V26.0773L78.6256 26.1199L76.3556 24.7958C76.2578 25.1499 76.2077 25.5154 76.2064 25.8828C76.1959 26.1994 76.2465 26.5151 76.3556 26.8126Z" fill="#37474F"/>
<path d="M78.4792 27.2069C78.4814 26.8394 78.5324 26.4739 78.631 26.1199C78.727 25.7499 78.8656 25.3922 79.044 25.0542C79.2142 24.7324 79.4207 24.4312 79.6594 24.1563C79.8802 23.9002 80.1412 23.6815 80.432 23.5089C80.6638 23.3658 80.9274 23.2825 81.1993 23.2665C81.4219 23.2559 81.6415 23.3207 81.8228 23.4503C82.0127 23.5986 82.156 23.7984 82.2357 24.0258C82.3407 24.3179 82.3912 24.6267 82.3849 24.937C82.3834 25.3069 82.3333 25.6751 82.2357 26.032C82.1366 26.3941 81.9982 26.7443 81.8228 27.0763C81.6523 27.399 81.4429 27.6997 81.1993 27.9715C80.9785 28.2219 80.7195 28.4359 80.432 28.6056C80.2001 28.7561 79.9348 28.8476 79.6594 28.872C79.4399 28.8848 79.2226 28.8218 79.044 28.6935C78.8546 28.548 78.7112 28.351 78.631 28.126C78.5222 27.8321 78.4707 27.5201 78.4792 27.2069Z" fill="#FAFAFA"/>
<path d="M81.2313 23.4131C81.4147 23.4092 81.5943 23.4653 81.7428 23.5729C81.9128 23.7049 82.0406 23.8836 82.1105 24.0871C82.2098 24.3638 82.2577 24.6564 82.2517 24.9503C82.2512 25.3103 82.2028 25.6687 82.1078 26.016C82.011 26.3683 81.8751 26.7088 81.7029 27.0311C81.5395 27.3448 81.3372 27.6366 81.1008 27.8996C80.8901 28.1405 80.6417 28.3456 80.3654 28.507C80.1527 28.644 79.9091 28.7255 79.6568 28.7442H79.6168C79.439 28.7492 79.2646 28.6948 79.1212 28.5896C78.9528 28.4585 78.8252 28.2819 78.7536 28.0808C78.6523 27.8027 78.6044 27.5081 78.6124 27.2122C78.6142 26.8521 78.6635 26.4938 78.7589 26.1465C78.8539 25.7914 78.9889 25.4482 79.1612 25.1235C79.3264 24.8099 79.5276 24.5166 79.7607 24.2496C79.9698 24.0032 80.2194 23.7942 80.4986 23.6315C80.7103 23.4979 80.9522 23.42 81.202 23.4051H81.2313M81.2313 23.2718H81.1993C80.9274 23.2878 80.6638 23.3712 80.432 23.5143C80.1412 23.6869 79.8802 23.9055 79.6594 24.1617C79.4207 24.4365 79.2142 24.7378 79.044 25.0595C78.8656 25.3976 78.727 25.7552 78.631 26.1252C78.5324 26.4792 78.4814 26.8448 78.4792 27.2122C78.4707 27.5255 78.5222 27.8375 78.631 28.1314C78.7112 28.3563 78.8546 28.5534 79.044 28.6989C79.2105 28.819 79.4115 28.8816 79.6168 28.8774H79.6594C79.9348 28.8529 80.2001 28.7615 80.432 28.611C80.7195 28.4412 80.9785 28.2272 81.1993 27.9769C81.4429 27.705 81.6523 27.4044 81.8228 27.0817C81.9982 26.7497 82.1366 26.3995 82.2357 26.0373C82.3333 25.6804 82.3834 25.3123 82.3849 24.9423C82.3912 24.632 82.3407 24.3232 82.2357 24.0312C82.156 23.8037 82.0127 23.604 81.8228 23.4557C81.6502 23.333 81.443 23.2686 81.2313 23.2718Z" fill="#455A64"/>
<path d="M85.374 7.47832C85.1946 6.98485 84.8563 6.565 84.4122 6.28475C84.0286 6.05829 82.5153 5.19508 82.1397 4.97395C81.6848 4.71625 81.1554 4.62222 80.6397 4.70753C79.9472 4.82036 79.2841 5.07036 78.6895 5.44286C78.1685 5.74239 77.6762 6.08932 77.2188 6.47924C76.7712 6.85943 76.351 7.27074 75.9613 7.71011C75.5783 8.14403 75.2216 8.60043 74.893 9.07685C74.5626 9.55375 74.2562 10.0413 73.9658 10.5395L74.8397 11.853C74.8802 11.9314 74.9409 11.9977 75.0155 12.0448L77.2695 13.3396C77.2782 13.3416 77.2873 13.3416 77.2961 13.3396C77.3475 13.3709 77.4064 13.3875 77.4666 13.3876C77.5841 13.3811 77.6979 13.3444 77.797 13.281C77.9697 13.1659 78.1167 13.0162 78.2286 12.8414C78.3778 12.6256 78.5669 12.3778 78.7774 12.0981C79.0184 11.7942 79.2763 11.5042 79.55 11.2295C79.6353 11.147 79.7259 11.0617 79.8164 10.9818C79.907 10.9018 79.939 10.8832 80.0003 10.8299C80.1095 10.7473 80.2267 10.6621 80.352 10.5848C80.4772 10.5075 80.5491 10.4569 80.653 10.3983C81.2498 10.0546 81.732 9.98003 82.097 10.1852C82.462 10.3903 82.6299 10.8459 82.6299 11.5493C82.6319 12.1127 82.5373 12.6723 82.3501 13.2037C82.1597 13.7351 81.9262 14.2502 81.6521 14.7437C81.3857 15.2365 81.082 15.7214 80.7676 16.193C80.4532 16.6646 80.1655 17.1388 79.9097 17.5997C79.6636 18.043 79.4602 18.5086 79.3023 18.9904C79.1493 19.4453 79.0993 19.9285 79.1557 20.4051L79.3822 22.8615L81.6494 21.5561L81.9452 19.097C82.0061 18.7059 82.1341 18.3282 82.3235 17.9807C82.5286 17.589 82.7711 17.1814 83.0482 16.7392C83.3252 16.2969 83.6236 15.8307 83.9353 15.3324C84.259 14.8101 84.5448 14.2652 84.7906 13.7019C85.0617 13.0851 85.2792 12.4459 85.4406 11.7917C85.6185 11.0554 85.708 10.3006 85.707 9.54309C85.7288 8.83989 85.6158 8.13902 85.374 7.47832Z" fill="#455A64"/>
<path d="M82.6487 11.5733C82.6508 12.1367 82.5562 12.6963 82.369 13.2277C82.1785 13.7592 81.9451 14.2742 81.671 14.7677C81.4045 15.2605 81.1008 15.7454 80.7864 16.217C80.4721 16.6886 80.1843 17.1628 79.9286 17.6237C79.6824 18.067 79.479 18.5326 79.3211 19.0144C79.1682 19.4693 79.1181 19.9525 79.1746 20.4291L79.401 22.8856L77.1258 21.5721L76.8993 19.1183C76.843 18.6411 76.8921 18.1572 77.0432 17.701C77.202 17.2182 77.4063 16.7517 77.6533 16.3076C77.9197 15.8467 78.1862 15.3831 78.5112 14.9062C78.8362 14.4293 79.124 13.9471 79.3984 13.4515C79.6706 12.9593 79.9031 12.4461 80.0937 11.917C80.2399 11.4946 80.3295 11.0547 80.3602 10.6088C80.4561 10.5449 80.5573 10.4809 80.6612 10.4223C81.258 10.0786 81.7402 10.004 82.1052 10.2092C82.4702 10.4143 82.6487 10.8699 82.6487 11.5733Z" fill="#37474F"/>
<path d="M75.0158 12.0475L77.2937 13.3636L76.2413 11.8557L73.9661 10.5422L74.8399 11.8584C74.8805 11.9361 74.9412 12.0014 75.0158 12.0475Z" fill="#37474F"/>
<path d="M76.2412 11.8557C76.5378 11.3602 76.8469 10.878 77.1684 10.409C77.5 9.92951 77.8604 9.47043 78.2474 9.03431C78.6364 8.59514 79.0567 8.18467 79.5049 7.8061C79.9533 7.41692 80.4367 7.06998 80.9489 6.76972C81.5459 6.39947 82.2091 6.14883 82.9018 6.03173C83.4166 5.94941 83.9442 6.04328 84.3991 6.29815C84.8453 6.57339 85.188 6.9883 85.3742 7.4784C85.6215 8.14522 85.7373 8.85363 85.7152 9.56449C85.7191 10.3221 85.6296 11.0774 85.4488 11.8131C85.2894 12.4693 85.0728 13.1103 84.8014 13.7287C84.5551 14.2908 84.2693 14.8348 83.9461 15.3565C83.6353 15.8556 83.3396 16.3245 83.059 16.7632C82.7872 17.2001 82.5474 17.6024 82.3423 18.0021C82.1528 18.3513 82.0257 18.7308 81.9666 19.1237L81.6656 21.5801L79.4036 22.8856L79.1745 20.4318C79.1184 19.9546 79.1675 19.4708 79.3184 19.0145C79.4765 18.5319 79.6818 18.0661 79.9312 17.6238C80.1843 17.1628 80.464 16.6939 80.7864 16.2197C81.1088 15.7455 81.3965 15.2606 81.6736 14.765C81.9466 14.2736 82.1783 13.7603 82.3663 13.2305C82.5553 12.6994 82.6509 12.1396 82.6487 11.576C82.6487 10.8655 82.4711 10.4108 82.1158 10.2119C81.7606 10.013 81.2793 10.0831 80.6718 10.4224C80.267 10.6489 79.8943 10.9284 79.5635 11.2536C79.2883 11.5269 79.0303 11.817 78.7909 12.1221C78.5742 12.401 78.3903 12.6488 78.2394 12.8655C78.1282 13.0409 77.9811 13.1907 77.8078 13.3051C77.5041 13.4809 77.2749 13.4356 77.1257 13.1718L76.2412 11.8557Z" fill="#FAFAFA"/>
<path d="M83.3094 6.14631C83.671 6.13927 84.0276 6.23141 84.3405 6.41273C84.7604 6.67738 85.0808 7.07368 85.2516 7.5397C85.4907 8.19085 85.6029 8.8818 85.582 9.57516C85.5875 10.3216 85.5025 11.0659 85.3289 11.7918C85.1686 12.4398 84.9547 13.0734 84.6895 13.6861C84.4428 14.2371 84.1598 14.7711 83.8422 15.2846C83.5305 15.7828 83.2348 16.2544 82.9551 16.6913C82.6753 17.1282 82.4222 17.5465 82.2251 17.9408C82.0279 18.3042 81.8954 18.699 81.8334 19.1077L81.543 21.5055L79.5155 22.6645L79.3077 20.4132C79.2539 19.9547 79.3012 19.49 79.4463 19.0518C79.6015 18.5779 79.8023 18.1202 80.0457 17.6851C80.2962 17.2348 80.5786 16.7659 80.8983 16.289C81.218 15.8121 81.5137 15.3219 81.7881 14.8263C82.0652 14.329 82.3004 13.8094 82.4915 13.2731C82.6845 12.7272 82.7827 12.1523 82.7819 11.5733C82.7819 10.822 82.5767 10.3238 82.1691 10.092C82.0099 10.005 81.8311 9.96005 81.6496 9.96147C81.2704 9.98065 80.9029 10.0992 80.5839 10.3052C80.1697 10.5381 79.7881 10.8248 79.4489 11.1577C79.1645 11.4348 78.8975 11.7293 78.6497 12.0396C78.4365 12.306 78.25 12.5724 78.0955 12.7855C77.9942 12.9444 77.8619 13.0812 77.7065 13.1878C77.6265 13.2387 77.5348 13.2681 77.4401 13.2731C77.3788 13.2731 77.2856 13.2571 77.195 13.0946L76.3664 11.8504C76.6329 11.3762 76.9392 10.9126 77.2456 10.4677C77.574 9.9935 77.9299 9.53891 78.3113 9.10626C78.6973 8.67282 79.113 8.26687 79.5555 7.89137C80.0027 7.51218 80.4834 7.17422 80.9915 6.88163C81.5731 6.5211 82.2191 6.27681 82.8938 6.1623C83.0201 6.14583 83.1474 6.13693 83.2748 6.13565M83.2748 6.00244C83.142 6.00363 83.0095 6.01252 82.8778 6.02908C82.1933 6.14997 81.5384 6.40143 80.9489 6.76974C80.4335 7.06522 79.9466 7.40769 79.4942 7.7928C79.046 8.17137 78.6258 8.58184 78.2367 9.021C77.8529 9.46172 77.4962 9.92525 77.1684 10.4091C76.838 10.8851 76.5289 11.3717 76.2412 11.8691L77.1151 13.1852C77.1462 13.2543 77.1962 13.3133 77.2594 13.3552C77.3225 13.3972 77.3963 13.4204 77.4721 13.4223C77.5876 13.4165 77.6996 13.3807 77.7971 13.3184C77.9705 13.204 78.1176 13.0542 78.2287 12.8788C78.3797 12.6621 78.5635 12.4143 78.7802 12.1355C79.0196 11.8303 79.2777 11.5403 79.5528 11.2669C79.8836 10.9418 80.2564 10.6622 80.6612 10.4357C80.9572 10.2442 81.2977 10.1323 81.6496 10.1107C81.8089 10.108 81.9661 10.1475 82.1052 10.2252C82.4604 10.4295 82.638 10.8842 82.638 11.5893C82.6402 12.153 82.5447 12.7128 82.3556 13.2438C82.1676 13.7736 81.9359 14.2869 81.6629 14.7784C81.3858 15.2739 81.0901 15.7588 80.7757 16.2331C80.4613 16.7073 80.1736 17.1762 79.9205 17.6371C79.6711 18.0794 79.4659 18.5453 79.3077 19.0278C79.1568 19.4841 79.1077 19.9679 79.1639 20.4452L79.393 22.8989L81.6549 21.5935L81.956 19.1371C82.015 18.7442 82.1421 18.3646 82.3316 18.0154C82.5368 17.6264 82.7766 17.2162 83.0563 16.7766C83.336 16.337 83.6318 15.8681 83.9435 15.3698C84.2666 14.8481 84.5524 14.3041 84.7987 13.742C85.0701 13.1237 85.2868 12.4827 85.4461 11.8264C85.627 11.0907 85.7165 10.3355 85.7125 9.57783C85.7372 8.86269 85.6223 8.14959 85.3742 7.47842C85.194 6.98535 84.8559 6.56571 84.4124 6.28485C84.0776 6.09383 83.6974 5.99716 83.3121 6.00511L83.2748 6.00244Z" fill="#455A64"/>
<path d="M28.7647 78.6716C28.4663 84.2239 28.8313 87.9138 28.4423 91.697C28.3598 92.4963 27.5738 98.3203 27.699 99.9934C27.8882 102.506 31.5701 102.527 31.9618 101.075C32.3534 99.6231 33.7175 93.0078 33.6935 92.0913C34.7592 87.8472 37.3409 78.8155 37.3409 78.8155L28.7647 78.6716Z" fill="#B16668"/>
<path d="M53.241 91.7824C52.6123 91.0497 52.0581 90.1306 52.1007 88.3029C52.146 86.4193 52.3219 83.1929 52.4871 80.3502L44.8301 80.225C45.6054 84.3598 46.1382 87.3917 46.4046 88.7212C46.4046 88.7505 46.4046 89.1315 46.3913 89.326C46.3034 90.8845 48.6532 91.5373 50.044 92.6562C51.229 93.6409 52.4955 94.5233 53.8298 95.2938C54.8555 95.8533 56.9976 96.0158 57.2933 95.3897C55.6015 94.0177 54.5492 93.317 53.241 91.7824Z" fill="#B16668"/>
<path d="M60.1678 97.3C60.2584 97.3 60.3383 98.2564 59.8188 98.6321C59.222 99.0637 57.5063 99.7351 55.3163 99.3434C53.1263 98.9518 51.97 98.2458 51.1308 97.4998C50.2916 96.7538 49.114 95.7015 48.1282 95.4377C47.2117 95.1953 46.0182 94.6704 45.7304 94.372C45.4427 94.0736 45.5652 92.8854 45.5652 92.8854L60.1678 97.3Z" fill="#263238"/>
<path d="M46.3354 88.3801C46.3354 88.3801 46.1729 88.3401 46.0983 88.6172C46.0103 88.9449 46.3061 89.7015 45.9597 90.5168C45.6507 91.2414 45.4269 92.5309 45.5867 93.3089C45.7226 93.9243 47.3664 94.5158 48.3122 94.9074C49.4127 95.4329 50.4291 96.1189 51.3281 96.9429C52.3139 97.8061 54.4453 98.7359 55.884 98.8345C58.0766 98.9837 59.5313 98.4988 60.0162 97.7688C60.4051 97.1906 60.2826 96.5992 59.819 96.0956C59.4267 95.7031 58.9777 95.3717 58.4869 95.1125C57.8422 94.7369 57.1947 94.3825 56.566 93.9829C55.7419 93.4501 54.9346 92.903 54.1442 92.3418C53.8311 92.1355 53.5462 91.8892 53.297 91.6091C52.7801 90.975 52.6869 90.1278 52.4977 89.3445C52.4798 89.2287 52.4341 89.119 52.3645 89.0248C52.2237 88.8979 52.0424 88.8252 51.853 88.8197C51.2075 88.7547 50.556 88.7834 49.9188 88.9049C49.4232 88.9928 48.8717 89.1713 48.6719 89.6083C48.4721 90.0452 48.6719 90.5061 48.4987 90.9164C48.4694 90.9857 48.4188 91.0603 48.3415 91.0709C48.0964 91.1082 47.9792 90.4075 47.8753 90.229C47.6648 89.872 47.5156 89.4777 47.1453 89.2299C46.9207 89.126 46.7073 88.9992 46.5086 88.8516C46.4084 88.7134 46.3485 88.5502 46.3354 88.3801Z" fill="#37474F"/>
<path d="M57.8368 94.6783C54.6397 94.7716 53.8404 96.9563 53.6086 98.2937C54.3295 98.6075 55.0993 98.7941 55.8839 98.8452C58.0765 98.9837 59.6351 98.3976 60.1466 97.545C60.7168 96.5486 60.0268 95.7334 57.8368 94.6783Z" fill="#FAFAFA"/>
<path d="M53.7445 94.8142C53.7093 94.8127 53.6756 94.7996 53.6486 94.7769C53.6346 94.7635 53.6234 94.7473 53.6158 94.7295C53.6082 94.7116 53.6042 94.6924 53.6042 94.673C53.6042 94.6536 53.6082 94.6344 53.6158 94.6165C53.6234 94.5987 53.6346 94.5825 53.6486 94.5691C54.0495 94.2258 54.5161 93.9677 55.0199 93.8106C55.5237 93.6535 56.0543 93.6007 56.5793 93.6553C56.5987 93.6579 56.6174 93.6643 56.6343 93.6742C56.6513 93.684 56.6661 93.6971 56.678 93.7127C56.6898 93.7283 56.6985 93.7461 56.7035 93.765C56.7085 93.7839 56.7098 93.8037 56.7071 93.8231C56.6988 93.8625 56.6756 93.8972 56.6423 93.92C56.6091 93.9428 56.5684 93.952 56.5286 93.9457C56.0523 93.8981 55.5712 93.9462 55.1137 94.0871C54.6562 94.228 54.2315 94.4589 53.8644 94.7663C53.8491 94.7824 53.8304 94.7951 53.8097 94.8034C53.789 94.8116 53.7668 94.8153 53.7445 94.8142Z" fill="#F0F0F0"/>
<path d="M52.4203 93.9856C52.3849 93.985 52.3509 93.9717 52.3244 93.9483C52.3104 93.9349 52.2992 93.9188 52.2916 93.9009C52.284 93.8831 52.28 93.8638 52.28 93.8444C52.28 93.825 52.284 93.8058 52.2916 93.7879C52.2992 93.7701 52.3104 93.7539 52.3244 93.7405C52.7248 93.3965 53.1914 93.1381 53.6953 92.9809C54.1993 92.8238 54.7301 92.7713 55.255 92.8267C55.2749 92.8289 55.294 92.8352 55.3113 92.8451C55.3287 92.8551 55.3438 92.8684 55.3557 92.8844C55.3677 92.9003 55.3763 92.9186 55.381 92.938C55.3856 92.9574 55.3863 92.9775 55.3829 92.9972C55.3791 93.0168 55.3714 93.0355 55.3604 93.0521C55.3493 93.0687 55.3351 93.083 55.3185 93.0942C55.302 93.1053 55.2833 93.1131 55.2638 93.117C55.2442 93.1209 55.224 93.121 55.2044 93.1171C54.7278 93.0691 54.2465 93.1173 53.7889 93.2587C53.3312 93.4001 52.9066 93.6319 52.5402 93.9403C52.5242 93.9555 52.5054 93.9673 52.4848 93.9751C52.4642 93.9829 52.4423 93.9864 52.4203 93.9856Z" fill="#F0F0F0"/>
<path d="M51.2055 93.0584C51.17 93.056 51.1363 93.0419 51.1096 93.0185C51.0952 93.0052 51.0837 92.9892 51.0759 92.9713C51.068 92.9534 51.064 92.9341 51.064 92.9146C51.064 92.895 51.068 92.8757 51.0759 92.8578C51.0837 92.8399 51.0952 92.8239 51.1096 92.8107C51.5102 92.4672 51.9768 92.2092 52.4808 92.0525C52.9847 91.8958 53.5154 91.8437 54.0402 91.8995C54.0598 91.9018 54.0787 91.908 54.0958 91.9177C54.1129 91.9275 54.1279 91.9406 54.1398 91.9562C54.1517 91.9719 54.1604 91.9898 54.1653 92.0089C54.1701 92.028 54.1711 92.0479 54.1681 92.0673C54.1643 92.0869 54.1566 92.1056 54.1456 92.1222C54.1345 92.1389 54.1203 92.1532 54.1037 92.1643C54.0871 92.1755 54.0685 92.1832 54.0489 92.1871C54.0293 92.1911 54.0092 92.1911 53.9896 92.1872C53.513 92.1399 53.0318 92.1883 52.5743 92.3297C52.1168 92.4711 51.6921 92.7026 51.3254 93.0105C51.2925 93.0404 51.2499 93.0575 51.2055 93.0584Z" fill="#F0F0F0"/>
<path d="M50.0173 92.1286C49.9818 92.1285 49.9476 92.1152 49.9214 92.0913C49.9074 92.0781 49.8963 92.0622 49.8887 92.0446C49.8811 92.027 49.8772 92.008 49.8772 91.9888C49.8772 91.9696 49.8811 91.9506 49.8887 91.9329C49.8963 91.9153 49.9074 91.8994 49.9214 91.8862C50.5768 91.1935 51.9808 90.7885 53.1184 90.9724C53.138 90.9746 53.1569 90.9808 53.174 90.9906C53.1911 91.0003 53.2061 91.0134 53.218 91.0291C53.23 91.0448 53.2386 91.0627 53.2435 91.0818C53.2483 91.1009 53.2493 91.1207 53.2463 91.1402C53.2425 91.1598 53.2348 91.1785 53.2238 91.1951C53.2127 91.2118 53.1985 91.2261 53.1819 91.2372C53.1653 91.2483 53.1467 91.2561 53.1271 91.26C53.1076 91.2639 53.0874 91.264 53.0678 91.2601C52.0367 91.0976 50.726 91.4652 50.1372 92.0807C50.1218 92.0968 50.1032 92.1095 50.0825 92.1178C50.0618 92.1261 50.0395 92.1298 50.0173 92.1286Z" fill="#F0F0F0"/>
<path d="M33.0408 102.303C32.9156 103.753 32.6358 104.714 32.0231 105.556C31.4103 106.398 30.278 106.646 29.143 106.38C28.0081 106.113 26.5561 105.418 26.2524 104.158C25.9486 102.897 25.7755 102.026 26.0605 100.694L33.0408 102.303Z" fill="#263238"/>
<path d="M28.4422 91.697C27.9707 91.721 27.7948 93.6712 27.4884 95.6188C27.1581 97.7102 26.4227 98.5627 26.127 100.276C25.7913 102.234 26.151 103.116 26.9263 104.315C27.7016 105.514 30.4963 106.713 31.9164 105.05C33.0753 103.683 33.1499 102.149 33.0833 100.188C33.014 98.1604 33.427 96.8283 33.5522 95.2911C33.6721 93.8257 34.085 92.2618 33.6801 92.094C33.6454 92.3071 33.6108 92.5815 33.5735 92.792C33.5534 93.0849 33.4619 93.3685 33.3071 93.6179C33.2352 93.7138 33.0167 93.8177 32.9767 93.6392C32.9541 93.5186 32.9541 93.3949 32.9767 93.2742C33.0567 92.7414 32.7423 92.6854 32.5718 92.6402C32.2041 92.5416 30.7468 92.3737 30.3951 92.3364C30.1287 92.3151 29.8623 92.3045 29.5772 92.3018C29.4173 92.3018 29.2575 92.3018 29.0976 92.3018C28.9378 92.3018 28.8019 92.3018 28.7326 92.4323C28.707 92.4896 28.6916 92.5509 28.6873 92.6135L28.6101 93.2023C28.6095 93.234 28.6021 93.2652 28.5883 93.2937C28.5745 93.3222 28.5546 93.3474 28.5301 93.3675C28.5054 93.3799 28.4776 93.3847 28.4501 93.3814C28.4226 93.3781 28.3967 93.3667 28.3756 93.3488C28.2664 93.2583 28.325 93.0265 28.3303 92.9066L28.3543 92.5309C28.3676 92.411 28.4289 91.8222 28.4422 91.697Z" fill="#37474F"/>
<path d="M25.9752 101.411C25.8713 102.628 26.191 103.468 26.7984 104.408C27.5711 105.607 30.5949 106.824 32.015 105.149C32.7237 104.315 32.9261 103.318 33.0407 102.301C32.2334 100.976 27.3073 100.318 25.9752 101.411Z" fill="#FAFAFA"/>
<path d="M32.055 100.151C32.0349 100.148 32.0152 100.142 31.9964 100.135C31.9778 100.135 29.8171 99.314 27.6911 99.703C27.6484 99.7131 27.6035 99.7066 27.5654 99.6848C27.5273 99.6631 27.4989 99.6277 27.4859 99.5858C27.4821 99.5652 27.4826 99.5441 27.4874 99.5237C27.4921 99.5034 27.501 99.4842 27.5136 99.4675C27.5261 99.4507 27.5419 99.4367 27.5601 99.4264C27.5782 99.416 27.5983 99.4095 27.6191 99.4073C29.8677 98.9997 32.071 99.8309 32.1483 99.8655C32.1676 99.8726 32.1851 99.8838 32.1997 99.8982C32.2143 99.9126 32.2256 99.93 32.2329 99.9492C32.2402 99.9684 32.2434 99.9889 32.2421 100.009C32.2408 100.03 32.2352 100.05 32.2256 100.068C32.208 100.097 32.1826 100.12 32.1524 100.134C32.1222 100.149 32.0884 100.155 32.055 100.151Z" fill="#F0F0F0"/>
<path d="M27.8242 98.2431C27.7928 98.24 27.7628 98.2288 27.7371 98.2106C27.7114 98.1924 27.6909 98.1678 27.6777 98.1392C27.6713 98.1193 27.6692 98.0982 27.6717 98.0773C27.6741 98.0565 27.681 98.0365 27.6918 98.0185C27.7027 98.0006 27.7173 97.9852 27.7346 97.9734C27.7519 97.9616 27.7716 97.9536 27.7922 97.95C29.9236 97.3666 32.2335 98.331 32.3214 98.3737C32.3409 98.3808 32.3587 98.3922 32.3732 98.407C32.3877 98.4219 32.3987 98.4399 32.4054 98.4596C32.412 98.4793 32.4142 98.5002 32.4116 98.5209C32.4091 98.5415 32.4019 98.5613 32.3907 98.5788C32.3642 98.614 32.3265 98.639 32.2838 98.6497C32.2411 98.6603 32.1961 98.656 32.1562 98.6374C32.1349 98.6374 29.873 97.6943 27.8935 98.2351C27.8711 98.2423 27.8476 98.245 27.8242 98.2431Z" fill="#F0F0F0"/>
<path d="M27.9307 96.8657C27.8992 96.8631 27.869 96.8521 27.8432 96.8338C27.8174 96.8155 27.797 96.7906 27.7842 96.7617C27.7777 96.7422 27.7755 96.7214 27.7776 96.7009C27.7798 96.6804 27.7862 96.6606 27.7965 96.6427C27.8068 96.6249 27.8208 96.6094 27.8375 96.5973C27.8542 96.5852 27.8732 96.5768 27.8934 96.5726C30.2246 95.8932 32.4226 96.9429 32.5078 96.9855C32.5267 96.9939 32.5434 97.0064 32.5568 97.0221C32.5702 97.0377 32.58 97.0562 32.5853 97.0761C32.5907 97.096 32.5915 97.1169 32.5878 97.1372C32.5841 97.1574 32.5759 97.1766 32.5638 97.1933C32.5355 97.2286 32.4957 97.2528 32.4513 97.2616C32.407 97.2703 32.3609 97.2632 32.3213 97.2413C32.3054 97.2413 30.1766 96.2262 28.0053 96.8577C27.981 96.8643 27.9558 96.867 27.9307 96.8657Z" fill="#F0F0F0"/>
<path d="M28.0639 95.5096C28.0341 95.5036 28.0063 95.4902 27.983 95.4707C27.9597 95.4511 27.9417 95.426 27.9307 95.3977C27.9238 95.3781 27.9211 95.3573 27.9229 95.3367C27.9246 95.316 27.9307 95.2959 27.9408 95.2778C27.9509 95.2597 27.9647 95.2439 27.9813 95.2315C27.9979 95.2191 28.017 95.2103 28.0373 95.2059C30.2219 94.5398 32.5931 95.6162 32.6837 95.6641C32.7023 95.6723 32.719 95.6845 32.7324 95.6999C32.7458 95.7152 32.7556 95.7333 32.7612 95.7529C32.7668 95.7725 32.768 95.7931 32.7647 95.8132C32.7615 95.8333 32.7538 95.8524 32.7423 95.8693C32.7152 95.9052 32.6762 95.9303 32.6322 95.9401C32.5883 95.9499 32.5423 95.9437 32.5025 95.9225C32.4839 95.9225 30.1846 94.8728 28.1545 95.4909C28.1261 95.504 28.0951 95.5104 28.0639 95.5096Z" fill="#EBEBEB"/>
<path d="M34.4687 36.2067C32.7849 38.9561 30.3232 40.9383 30.206 50.4469C30.0754 60.1021 30.134 65.4971 30.0728 66.6587C30.0115 67.8203 29.5186 69.8132 28.7806 75.5359C28.0426 81.2587 28.4982 87.9805 28.4982 87.9805C28.4982 87.9805 29.0683 89.0302 31.3942 89.27C33.5256 89.4858 34.8897 88.8011 34.8897 88.8011C34.8897 88.8011 37.9482 77.6859 38.8247 74.2464C39.7013 70.8069 42.3948 57.5258 42.3948 57.5258L43.623 66.76C43.623 66.76 42.8237 70.1515 43.623 75.1949C44.4223 80.2383 45.6931 85.1697 45.6931 85.1697C45.6931 85.1697 46.7588 85.5028 49.0287 85.5161C50.1511 85.515 51.2622 85.2913 52.2977 84.858C52.2977 84.858 53.6298 70.1329 53.7444 64.4341C53.8589 58.7353 53.6911 43.059 51.6956 36.2093L34.4687 36.2067Z" fill="#455A64"/>
<path d="M39.307 68.3665C39.307 68.3665 38.4091 67.093 36.1499 66.7973C33.8906 66.5016 32.6864 67.6445 32.6864 67.6445C32.6864 67.6445 36.9012 67.2955 39.307 68.3665ZM32.4226 68.4837C35.3319 69.0752 36.664 68.9873 38.0015 68.7502C38.0015 68.7555 33.8133 68.188 32.4226 68.4891V68.4837Z" fill="#B16668"/>
<path d="M47.9551 66.0059C49.8642 65.7917 51.7893 65.7596 53.7045 65.91C53.7045 65.6942 53.7205 65.4864 53.7258 65.2866C51.7729 65.0521 48.781 65.577 47.9551 66.0059Z" fill="#B16668"/>
<path d="M53.6485 67.2955C53.6485 67.0983 53.6645 66.9065 53.6725 66.7174C53.2142 66.6987 51.2747 66.6348 49.3271 66.7467C50.5021 67.0637 53.145 67.2609 53.6485 67.2955Z" fill="#B16668"/>
<path d="M31.0106 70.1035C31.6527 67.4393 32.023 62.0523 32.095 57.6376C32.119 56.3055 32.1403 54.9228 32.1829 53.4575C32.3428 47.7081 32.9315 41.2793 36.0887 37.1791L36.3338 37.3469C34.2024 40.1044 33.2699 43.9515 32.833 47.9292C35.8968 47.5988 36.6188 44.7588 37.6046 40.8504C37.7378 40.3175 37.871 39.7634 38.0282 39.1959L38.3213 39.2652C38.1721 39.83 38.0335 40.3815 37.8977 40.9143C36.9146 44.8174 36.1366 47.9079 32.801 48.2276C32.6198 49.978 32.5346 51.7524 32.484 53.4655C32.444 54.9281 32.42 56.3082 32.3987 57.6403C32.3241 62.0736 31.9538 67.4819 31.3064 70.1621C31.2344 70.4605 31.1545 70.7749 31.0746 71.1053C30.2167 74.5395 28.9432 79.6894 29.3562 88.6891C29.2488 88.6329 29.1448 88.5706 29.0444 88.5026C28.6475 79.5748 29.9263 74.4515 30.7789 71.028C30.8614 70.7163 30.9387 70.4019 31.0106 70.1035Z" fill="#37474F"/>
<path d="M42.387 57.523L44.5183 46.5997C44.5183 46.5997 48.56 46.3946 50.8432 44.2179C50.3823 46.1068 47.1453 47.6494 45.6853 47.9478L45.2803 49.8714C45.3309 50.8971 45.3895 51.9761 45.4482 53.0898C45.7785 59.2175 46.0583 65.5636 45.7599 66.9997C45.1817 69.7864 45.4135 72.448 45.8638 76.058C46.2687 79.319 46.9295 83.358 47.3424 85.4227L47.0387 85.3908C46.6284 83.3473 46.0742 79.7453 45.5228 76.082C44.9713 72.4187 44.7848 69.853 45.4641 66.9277C45.7865 65.537 45.4641 58.9351 45.1471 53.1004C45.1098 52.39 45.0725 51.6981 45.0352 51.025L43.6098 57.7974L43.6285 66.7466L42.387 57.523Z" fill="#37474F"/>
<path d="M68.2591 26.4183C67.3187 26.9698 67.1721 27.484 66.1438 29.5461C65.0195 31.8134 63.6394 33.1881 62.976 33.5185C62.3126 33.8488 60.5222 33.5185 57.5303 31.9199C53.8937 29.9777 50.3369 27.7611 50.3369 27.7611L48.3867 19.2009C49.1487 19.3448 50.2916 19.438 51.693 20.533C54.5837 22.787 61.207 27.46 61.207 27.46C61.207 27.46 61.7638 26.9805 62.3872 26.4343C63.0106 25.8881 63.5968 25.5498 63.5222 25.1688L68.2591 26.4183Z" fill="#B16668"/>
<path d="M61.207 27.46C60.3039 28.2033 59.6085 29.1438 59.5126 30.2361C59.2728 29.2663 59.8509 27.7398 60.7701 27.1456L61.207 27.46Z" fill="#9A4A4D"/>
<path d="M65.9067 26.7273C64.3535 26.3676 63.7753 25.4964 63.3464 24.9396C62.9174 24.3828 62.4965 23.9379 62.0462 23.842C61.596 23.746 60.7434 23.6022 60.1813 23.2798C60.0595 23.2255 59.9579 23.1343 59.8907 23.0191C59.8235 22.904 59.7942 22.7706 59.8068 22.6379C59.8195 22.5051 59.8735 22.3797 59.9612 22.2793C60.049 22.1789 60.166 22.1086 60.2959 22.0782C60.882 21.8917 61.3935 22.1848 61.9983 22.3766C62.6031 22.5685 64.5373 22.6644 65.1021 21.5987C65.6669 20.533 65.6829 19.4673 65.7469 18.5242C65.8108 17.581 65.7255 16.7631 66.333 16.6326C66.9404 16.502 66.9351 17.1228 66.9457 17.8528C66.9564 18.5828 66.8818 20.0668 66.9191 20.4051C66.9564 20.7435 67.2228 20.9859 67.412 20.6396C67.6453 20.0859 67.8073 19.5049 67.8942 18.9105C68.0621 18.1112 68.2352 17.3119 68.8107 17.4159C69.3862 17.5198 69.2689 18.1911 69.1677 18.7879C69.0665 19.3847 68.7841 20.5996 68.7201 20.9193C68.6562 21.239 68.7201 21.6813 69.0931 21.1644C69.4065 20.7105 69.6827 20.2321 69.919 19.7337C70.1615 19.2835 70.3799 18.7187 70.8675 18.9345C71.355 19.1503 71.3337 19.7337 71.07 20.2826C70.7441 20.8828 70.3783 21.4604 69.975 22.0116C69.6926 22.4273 69.3888 23.1839 70.0442 22.7949C70.6996 22.4059 70.9554 22.1848 71.2565 22.0463C71.5575 21.9077 72.0131 22.2301 71.6907 22.707C71.3684 23.1839 70.665 23.5942 70.4732 23.8739C70.2656 24.2036 70.0264 24.5123 69.7592 24.7957C69.4927 25.0622 69.2263 25.7495 68.6562 26.1492C68.086 26.5488 67.4626 27.0843 65.9067 26.7273Z" fill="#B16668"/>
<path d="M66.1305 18.3484C65.976 17.9434 66.0905 17.7276 66.3463 17.7356C66.6021 17.7436 66.9404 17.6211 66.9271 17.2667C66.9404 17.4426 66.9431 17.6397 66.9457 17.8475C66.9457 18.3804 66.9191 19.2782 66.9111 19.875C66.9244 19.0224 66.2957 18.756 66.1305 18.3484Z" fill="#9A4A4D"/>
<path d="M68.8612 21.3989C68.7786 21.4548 68.4483 21.5374 68.4296 21.0472C68.411 20.557 68.3976 19.795 68.2218 19.3634C68.0928 19.0748 68.0729 18.7491 68.1658 18.4469C68.2138 18.3323 68.3124 18.4842 68.6321 18.5295C68.775 18.5435 68.918 18.5037 69.0333 18.418C69.1485 18.3323 69.2277 18.2068 69.2555 18.0659C69.248 18.3085 69.2204 18.55 69.1729 18.7879C69.0717 19.3874 68.7893 20.5996 68.7253 20.9193C68.6747 21.1644 68.6934 21.4655 68.8612 21.3989Z" fill="#9A4A4D"/>
<path d="M69.9109 21.295C69.8976 21.1698 69.5779 20.9007 69.6631 20.7861C69.7484 20.6716 69.9109 20.7861 69.9775 20.6929C70.0441 20.5996 70.0015 20.176 70.0494 19.9336C70.0974 19.6911 70.2146 19.6672 70.4331 19.8936C70.6515 20.1201 71.1524 19.9336 71.2323 19.7524C71.2031 19.9423 71.1447 20.1265 71.0592 20.2986C70.7333 20.8988 70.3675 21.4765 69.9642 22.0277C69.7724 22.3127 69.5699 22.7523 69.6685 22.8802C69.434 22.7523 69.2795 22.1982 69.4473 21.9983C69.6152 21.7985 69.9242 21.4202 69.9109 21.295Z" fill="#9A4A4D"/>
<path d="M60.7273 23.5169C61.6065 23.7461 62.1553 23.4663 62.7761 23.7834C63.3968 24.1004 64.2201 24.945 65.2325 25.5844C66.2449 26.2238 67.3639 26.3437 67.8328 26.1492C68.3017 25.9547 69.5672 24.9237 68.9917 24.4654C68.4162 24.0072 67.6596 23.2612 67.4758 22.7123C68.0086 23.4583 68.989 24.2816 69.3407 24.4015C69.4037 24.4282 69.4719 24.4403 69.5402 24.4367C69.6085 24.4332 69.6751 24.4141 69.7349 24.381C69.7947 24.3479 69.8462 24.3015 69.8855 24.2455C69.9248 24.1895 69.9507 24.1253 69.9615 24.0578C69.9615 23.842 69.7537 23.6155 69.8256 23.5462C69.8975 23.477 70.092 23.5702 70.2306 23.509C70.3691 23.4477 70.7314 23.1653 70.7235 22.9148C70.7155 22.6644 70.8327 22.4353 70.9899 22.5685C71.1471 22.7017 71.4082 22.9122 71.6346 22.8163C71.2909 23.2532 70.6675 23.6155 70.489 23.8819C70.2759 24.2095 70.0314 24.5156 69.759 24.7958C69.4926 25.0622 69.2262 25.7496 68.656 26.1492C68.0859 26.5488 67.4571 27.0737 65.9012 26.7167C64.3453 26.3597 63.7698 25.4858 63.3409 24.929C62.912 24.3722 62.491 23.9272 62.0408 23.8313C61.5972 23.7523 61.1586 23.6473 60.7273 23.5169Z" fill="#9A4A4D"/>
<path d="M65.3152 22.7577C65.4224 22.8142 65.5189 22.8891 65.6003 22.9789C65.6962 23.0721 65.7921 23.1627 65.88 23.2613C66.0656 23.4722 66.229 23.7016 66.3676 23.946C66.6447 24.4269 66.8181 24.9605 66.8764 25.5125C66.9076 25.8344 66.8933 26.1591 66.8338 26.477C66.8098 26.5915 66.6127 26.5409 66.634 26.4237C66.7549 25.7252 66.662 25.0064 66.3676 24.3616C66.2384 24.0723 66.0795 23.7973 65.8933 23.541C65.8028 23.4185 65.7095 23.2932 65.6269 23.1733C65.5107 23.056 65.4063 22.9275 65.3152 22.7897C65.3152 22.7897 65.2992 22.7524 65.3152 22.7577Z" fill="#9A4A4D"/>
<path d="M31.3943 41.5298C32.4413 38.2795 34.6979 36.0282 34.5327 34.4457C34.2823 32.0132 32.4706 28.7602 32.428 27.0817C32.2788 21.1166 33.9653 20.0562 35.6251 19.59C37.2849 19.1237 40.7857 18.5083 40.7857 18.5083C41.7874 18.4923 45.7864 18.6815 45.7864 18.6815L48.4053 19.2143C49.7977 20.2851 51.0264 21.5533 52.0527 22.9788C53.9389 25.5285 54.6077 29.6101 51.7729 31.7948C51.6824 32.5687 51.6326 33.3468 51.6237 34.126C51.7116 35.6392 52.6894 39.1134 52.8892 42.1532C48.5039 45.8965 36.1446 45.5768 31.3943 41.5298Z" fill="#BA68C8"/>
<g opacity="0.4">
<path d="M31.3943 41.5298C32.4413 38.2795 34.6979 36.0282 34.5327 34.4457C34.2823 32.0132 32.4706 28.7602 32.428 27.0817C32.2788 21.1166 33.9653 20.0562 35.6251 19.59C37.2849 19.1237 40.7857 18.5083 40.7857 18.5083C41.7874 18.4923 45.7864 18.6815 45.7864 18.6815L48.4053 19.2143C49.7977 20.2851 51.0264 21.5533 52.0527 22.9788C53.9389 25.5285 54.6077 29.6101 51.7729 31.7948C51.6824 32.5687 51.6326 33.3468 51.6237 34.126C51.7116 35.6392 52.6894 39.1134 52.8892 42.1532C48.5039 45.8965 36.1446 45.5768 31.3943 41.5298Z" fill="white"/>
</g>
<path d="M25.1095 36.6996C24.5767 35.554 25.8528 32.65 26.9745 30.3694C28.2799 27.7052 30.0596 23.7541 30.9415 22.3981C31.6715 21.2711 32.7265 20.3173 35.6119 19.6353C36.2931 20.7959 36.678 22.1066 36.7324 23.4514C36.7867 24.7962 36.5089 26.1336 35.9236 27.3455L30.9415 35.7751L25.1095 36.6996Z" fill="#B16668"/>
<path d="M27.1315 33.9394C28.2265 33.0522 29.4654 32.3409 32.6518 32.8737L30.9414 35.7671L26.7292 36.4331L27.1315 33.9394Z" fill="#9A4A4D"/>
<path d="M40.2716 37.2163C40.2716 37.275 38.5478 37.7678 36.8081 38.1355C35.0684 38.5032 31.5489 39.2811 28.5996 38.8069C27.2409 38.5884 25.613 37.7412 25.1042 36.6995C24.8138 36.1027 25.637 34.2031 28.1441 33.5877C30.6511 32.9722 32.1404 33.4571 34.2478 33.617C37.2051 33.8381 37.7752 33.8488 37.8951 33.0415L40.2716 37.2163Z" fill="#B16668"/>
<path d="M35.3028 38.3301C35.2761 38.3754 35.2468 38.418 35.2175 38.4606C35.8383 38.3434 36.3818 38.2262 36.8161 38.1356C38.5505 37.7679 40.2796 37.2751 40.2796 37.2164L37.9004 33.0549C37.8919 33.4371 37.8236 33.8156 37.6979 34.1766C37.5066 34.6774 37.2684 35.1591 36.9866 35.6152C36.4564 36.5557 35.9369 37.2937 35.3028 38.3301Z" fill="#9A4A4D"/>
<path d="M41.2519 34.9518C41.227 34.9015 41.2047 34.8499 41.1852 34.7973C41.0094 34.3443 40.9988 33.8408 40.8203 33.3905C40.5395 32.803 40.0931 32.3104 39.5361 31.9732C39.1823 31.7577 38.8581 31.4971 38.5716 31.1979C38.3621 30.9044 38.1097 30.644 37.823 30.4253C37.5121 30.2178 37.1556 30.0889 36.784 30.0496C36.6029 30.0213 36.4174 30.0472 36.2511 30.1242C36.0566 30.2308 36.1099 30.3373 36.2032 30.4972C36.2964 30.6571 36.4003 30.8196 36.5069 30.9794C36.7614 31.3688 37.0381 31.7433 37.3354 32.1011C37.6111 32.412 37.8229 32.7741 37.9589 33.1667C38.0482 33.5583 38.0316 33.9666 37.9109 34.3497C37.8031 34.7746 37.6513 35.1871 37.458 35.5805C37.3061 35.8896 37.1276 36.1853 36.9518 36.481C36.3843 37.4268 35.8168 38.37 35.228 39.3025C35.2007 39.3356 35.1805 39.3739 35.1686 39.4152C35.1567 39.4564 35.1533 39.4997 35.1588 39.5422C35.2041 39.7154 35.5025 39.7447 35.649 39.7447C35.8772 39.7324 36.0947 39.6443 36.2671 39.4943L36.3097 39.4596C36.9012 38.9561 38.3479 36.7954 38.3479 36.7954C38.3479 36.7954 37.8363 38.5112 37.4234 39.6648C37.0104 40.8184 36.6587 41.6869 36.5815 41.9374C36.5042 42.1878 37.3807 42.3663 37.8869 41.583C38.3931 40.7997 39.3576 38.2394 39.3576 38.2394C39.3576 38.2394 39.4988 39.6675 39.5894 40.5946C39.68 41.5217 39.7439 42.7579 39.8052 43.083C39.8665 43.408 40.5618 43.1975 40.7457 42.4755C40.9295 41.7535 40.8149 39.7287 40.8149 39.7287C40.8149 39.7287 41.3478 41.282 41.4916 41.4685C41.6355 41.655 42.2136 41.8201 42.3575 40.9996C42.4561 40.4481 42.2829 39.9925 41.8833 38.6657C41.8087 38.4126 41.7447 38.1568 41.6941 37.8957C41.6595 37.6394 41.6595 37.3795 41.6941 37.1231C41.7547 36.5492 41.6846 35.969 41.489 35.426C41.409 35.2768 41.3185 35.117 41.2519 34.9518Z" fill="#B16668"/>
<path d="M38.8169 34.4935C39.475 35.2342 40.4554 35.2289 40.6605 35.0743C40.3462 35.6205 39.062 35.4367 38.8169 34.4935Z" fill="#9A4A4D"/>
<path d="M42.1737 41.4525C42.0485 41.5245 41.8007 41.4525 41.6702 41.1861C41.5396 40.9197 41.2892 40.1204 41.1773 39.7341C41.0654 39.3478 40.6924 38.053 40.6924 38.053L40.8016 39.7501C40.8016 39.7501 41.3345 41.3033 41.4783 41.4898C41.5225 41.5404 41.5775 41.5802 41.6393 41.6063C41.7012 41.6324 41.7681 41.6441 41.8351 41.6405C41.9021 41.6369 41.9674 41.6181 42.0261 41.5855C42.0847 41.553 42.1352 41.5075 42.1737 41.4525Z" fill="#9A4A4D"/>
<path d="M36.952 1.75299L36.8854 1.80628C36.2753 2.30982 35.8623 2.82401 35.0684 3.01317C34.2744 3.20233 33.5285 3.45543 32.953 4.03091C32.7063 4.27045 32.5115 4.55825 32.3809 4.87635C32.2503 5.19446 32.1865 5.53606 32.1937 5.87987C32.215 6.18626 32.3722 6.29016 32.4601 6.54859C32.5026 6.72046 32.5094 6.89921 32.4801 7.0738C32.4507 7.24839 32.3859 7.41511 32.2896 7.56366C32.0643 7.90346 31.8851 8.27168 31.7568 8.65866C31.6049 9.32471 31.9672 10.0094 32.4361 10.5236C32.7185 10.822 33.0542 11.1044 33.1661 11.5014C33.3153 12.0342 33.0249 12.5671 33.0409 13.1159C33.0649 14.0644 34.032 14.7597 34.9751 14.861C35.508 14.9196 36.1181 14.861 36.5337 15.2073C36.8454 15.4737 36.96 15.9053 37.2477 16.1957C37.5459 16.456 37.9191 16.6146 38.3134 16.6487C38.9688 16.7585 39.6413 16.7017 40.2689 16.4835C40.8993 16.2597 41.4223 15.807 41.7343 15.2153C42.0007 14.6825 42.046 14.0484 42.3311 13.5182C42.8639 12.5191 44.1294 12.0982 44.7289 11.1364C44.9121 10.8368 45.0238 10.499 45.0552 10.1492C45.0867 9.79936 45.037 9.44703 44.91 9.11957C44.7022 8.58672 44.2999 8.14979 44.212 7.59563C44.1001 6.88429 44.5344 6.20491 44.6143 5.4909C44.6515 5.12262 44.5954 4.7509 44.451 4.41005C44.3067 4.0692 44.0788 3.77021 43.7884 3.54069C43.2555 3.12773 42.5575 2.98387 42.0034 2.59755C41.6677 2.3631 41.3959 2.04606 41.0762 1.79829C40.4862 1.34554 39.7653 1.09639 39.0217 1.08822C38.278 1.08005 37.5518 1.31332 36.952 1.75299Z" fill="#263238"/>
<path d="M38.0548 2.65077C37.7317 2.90444 37.4643 3.22204 37.2695 3.58374C37.0747 3.94543 36.9565 4.34343 36.9225 4.75285C36.8896 5.00892 36.9179 5.26916 37.0051 5.51215C37.1316 5.77524 37.336 5.99305 37.5905 6.13603C37.845 6.27902 38.1373 6.34024 38.4278 6.31141C39.0108 6.24369 39.5541 5.98189 39.9704 5.5681C40.4312 5.15971 40.7805 4.64078 40.9855 4.06015C41.1054 3.70581 41.2865 3.05041 41.1187 2.68275C40.6524 1.63571 38.7102 2.1499 38.0548 2.65077Z" fill="#BA68C8"/>
<path d="M39.3869 2.22185C39.9341 1.74437 40.619 1.45327 41.3425 1.39061C42.0352 1.332 42.4428 1.40393 43.1195 1.24674C43.7962 1.08955 44.3504 0.756525 44.9845 0.599336C46.3992 0.250323 47.9418 0.852437 48.9408 1.9128C49.3831 2.3817 49.7747 2.95984 50.3875 3.15432C50.6982 3.2225 51.0134 3.26791 51.3307 3.2902C52.3217 3.45005 53.137 4.23866 53.5286 5.15515C53.8212 5.89265 53.9406 6.68745 53.8776 7.47836C53.8403 8.18437 53.446 8.78382 53.3448 9.45787C53.2436 10.1319 53.8164 10.8832 53.9043 11.5892C53.9975 12.3379 53.7444 13.1878 53.0757 13.5475C53.1386 12.8536 52.9494 12.1604 52.5429 11.5946C52.569 12.1062 52.4909 12.6177 52.3132 13.0982C52.1355 13.5786 51.8619 14.0179 51.5092 14.3893C51.1501 14.7532 50.7075 15.0238 50.2199 15.1775C49.7323 15.3312 49.2146 15.3634 48.7117 15.2712C48.3303 15.1554 47.9413 15.0664 47.5475 15.0048C46.7615 14.9568 46.0582 15.4444 45.3974 15.8707C44.5795 16.4035 43.7989 16.6433 42.8318 16.4035C41.8647 16.1637 40.7963 15.9159 39.9891 15.2978C39.1737 14.7039 38.4393 14.0062 37.8044 13.2224C36.4989 11.5226 36.2885 9.46587 36.6908 7.41441C36.8077 6.6836 37.055 5.97973 37.4208 5.33632C37.6047 5.04186 37.8269 4.7731 38.0815 4.53706C38.1374 4.4891 38.6516 4.13742 38.6569 4.28662C38.6359 3.91127 38.6896 3.53548 38.8149 3.18104C38.9402 2.8266 39.1347 2.50057 39.3869 2.22185Z" fill="#263238"/>
<path d="M38.2174 9.66302C39.0806 9.45255 39.7387 9.84685 40.0824 10.766C40.3728 11.5653 41.2146 11.4028 41.1694 10.2065C43.2421 8.67726 41.2306 7.27588 42.9704 5.76793C44.0574 4.8248 46.0529 5.36297 46.7855 6.13026C47.0571 5.76589 47.4444 5.50465 47.884 5.38943C48.3236 5.27421 48.7893 5.31186 49.2046 5.49618C50.0226 5.90114 50.5021 6.48194 50.7632 7.71814C51.0296 9.00496 50.5661 9.18346 50.6646 10.0813C50.784 10.7164 50.8438 11.3613 50.8431 12.0075C50.7632 14.9382 49.6762 16.5021 48.6905 17.0696C47.751 17.5601 46.6804 17.741 45.6319 17.5864L45.56 19.2222C45.56 19.2222 47.2225 22.1369 46.9507 24.1937C45.2321 23.5116 43.5943 22.6413 42.0672 21.5987C39.6161 19.9096 39.5282 18.8519 39.5282 18.8519L39.9731 13.5235C39.7253 13.9657 38.5025 14.376 37.6473 13.4755C36.5629 12.3459 36.6935 10.036 38.2174 9.66302Z" fill="#B16668"/>
<path d="M50.2677 9.41791L49.0076 8.75186C49.0469 8.66755 49.103 8.59215 49.1725 8.53025C49.2419 8.46834 49.3233 8.42125 49.4115 8.39183C49.4998 8.36241 49.5931 8.35128 49.6858 8.35913C49.7785 8.36698 49.8686 8.39364 49.9507 8.43748C50.119 8.52923 50.2457 8.68206 50.3047 8.86447C50.3637 9.04689 50.3505 9.24497 50.2677 9.41791Z" fill="#263238"/>
<path d="M45.4533 8.65864L44.1825 9.28206C44.1379 9.20054 44.1103 9.11079 44.1015 9.01827C44.0927 8.92575 44.1028 8.8324 44.1312 8.74392C44.1596 8.65543 44.2057 8.57365 44.2668 8.50357C44.3278 8.43348 44.4025 8.37656 44.4862 8.33627C44.6584 8.25856 44.8536 8.24859 45.0328 8.30833C45.2121 8.36807 45.3622 8.49315 45.4533 8.65864Z" fill="#263238"/>
<path d="M45.2484 13.3583L47.1427 14.2348C47.081 14.3662 46.9927 14.4834 46.8833 14.5789C46.774 14.6743 46.6459 14.746 46.5074 14.7893C46.3689 14.8327 46.2228 14.8467 46.0785 14.8306C45.9343 14.8145 45.7949 14.7686 45.6694 14.6957C45.1605 14.4346 45.0299 13.8938 45.2484 13.3583Z" fill="#9A4A4D"/>
<path d="M46.2339 14.8236C46.2369 14.5523 46.1391 14.2896 45.9595 14.0863C45.7798 13.883 45.5311 13.7536 45.2615 13.7233H45.1602C45.1292 13.9192 45.1625 14.1199 45.2552 14.2952C45.3479 14.4706 45.495 14.6111 45.6744 14.6957C45.8477 14.7833 46.0398 14.8272 46.2339 14.8236Z" fill="#FFA8A7"/>
<path d="M47.2625 9.58044L47.4223 13.2544L49.2926 12.7402L47.2625 9.58044Z" fill="#9A4A4D"/>
<path d="M45.9624 10.2998C45.9542 10.4175 45.9113 10.5302 45.8391 10.6236C45.7669 10.7169 45.6686 10.7868 45.5567 10.8243C45.4448 10.8618 45.3243 10.8652 45.2104 10.8343C45.0965 10.8033 44.9944 10.7392 44.9169 10.6502C44.8394 10.5612 44.79 10.4512 44.7751 10.3341C44.7601 10.217 44.7802 10.0981 44.8328 9.99247C44.8854 9.88681 44.9681 9.79912 45.0706 9.74049C45.173 9.68185 45.2905 9.6549 45.4082 9.66304C45.4866 9.66811 45.5631 9.68864 45.6334 9.72346C45.7038 9.75828 45.7665 9.80669 45.8181 9.86589C45.8696 9.9251 45.9089 9.99393 45.9336 10.0684C45.9584 10.1429 45.9682 10.2215 45.9624 10.2998Z" fill="#263238"/>
<path d="M50.0573 10.3477C50.0495 10.4659 50.0066 10.5791 49.9343 10.6729C49.8619 10.7667 49.7633 10.8368 49.6509 10.8743C49.5386 10.9119 49.4176 10.9152 49.3034 10.8837C49.1892 10.8523 49.0869 10.7876 49.0096 10.6978C48.9323 10.6081 48.8834 10.4973 48.8693 10.3797C48.8551 10.2621 48.8763 10.1429 48.93 10.0374C48.9838 9.93185 49.0678 9.84469 49.1713 9.78703C49.2747 9.72936 49.393 9.7038 49.5111 9.71359C49.6671 9.72653 49.8118 9.80025 49.914 9.91886C50.0161 10.0375 50.0676 10.1915 50.0573 10.3477Z" fill="#263238"/>
<path d="M45.6426 17.5704C43.7777 17.0669 41.7022 16.6646 40.7378 13.9071C40.8866 15.1644 41.5239 16.3127 42.5122 17.1042C43.4123 17.7799 44.4502 18.2493 45.552 18.4789L45.6426 17.5704Z" fill="#9A4A4D"/>
</svg>
